M48
; DRILL file {KiCad 7.0.9-7.0.9~ubuntu22.04.1} date Tue 05 Dec 2023 09:20:51 PM EET
; FORMAT={-:-/ absolute / metric / decimal}
; #@! TF.CreationDate,2023-12-05T21:20:51+02:00
; #@! TF.GenerationSoftware,Kicad,Pcbnew,7.0.9-7.0.9~ubuntu22.04.1
; #@! TF.FileFunction,Plated,1,2,PTH
FMAT,2
METRIC
; #@! TA.AperFunction,Plated,PTH,ViaDrill
T1C0.300
; #@! TA.AperFunction,Plated,PTH,ComponentDrill
T2C1.000
; #@! TA.AperFunction,Plated,PTH,ComponentDrill
T3C1.100
; #@! TA.AperFunction,Plated,PTH,ComponentDrill
T4C3.400
%
G90
G05
T1
X105.766Y-55.702
X106.248Y-58.344
X106.35Y-60.401
X107.366Y-79.502
X107.391Y-69.367
X107.391Y-70.637
X107.391Y-71.907
X107.391Y-73.177
X107.391Y-75.692
X107.391Y-78.232
X107.417Y-74.447
X107.417Y-76.987
X109.499Y-62.535
X109.982Y-54.102
X110.922Y-84.582
X110.947Y-85.827
X110.947Y-87.173
X110.973Y-78.257
X110.973Y-80.797
X110.998Y-73.177
X110.998Y-74.447
X110.998Y-75.717
X110.998Y-79.527
X111.023Y-76.987
X111.023Y-82.067
X111.227Y-90.627
X111.227Y-92.024
X112.547Y-91.186
X113.462Y-119.304
X113.817Y-116.815
X114.351Y-75.616
X114.579Y-73.914
X114.808Y-77.851
X114.859Y-78.791
X114.96Y-112.075
X114.96Y-116.84
X115.341Y-79.527
X115.697Y-120.294
X115.976Y-111.948
X120.421Y-120.498
X123.19Y-111.76
X123.317Y-114.173
X123.571Y-112.522
X123.571Y-113.411
X123.698Y-91.872
X123.85Y-92.989
X123.952Y-54.102
X123.952Y-111.125
X124.46Y-59.131
X124.79Y-99.263
X124.943Y-56.896
X124.968Y-110.49
X125.247Y-82.296
X125.349Y-65.557
X125.4Y-59.131
X125.501Y-57.658
X125.552Y-106.223
X125.578Y-99.085
X125.705Y-107.264
X125.959Y-66.167
X125.984Y-110.236
X126.111Y-56.871
X126.238Y-105.537
X126.238Y-108.712
X126.314Y-82.982
X126.619Y-117.856
X126.746Y-111.125
X127.127Y-114.198
X127.254Y-118.364
X127.262Y-109.517
X127.572Y-108.496
X127.737Y-98.476
X127.762Y-65.278
X127.838Y-119.659
X127.864Y-60.858
X127.889Y-81.915
X127.965Y-57.785
X127.965Y-74.6
X127.991Y-56.82
X127.991Y-73.635
X127.991Y-91.364
X128.016Y-90.399
X128.016Y-118.618
X128.092Y-79.629
X128.143Y-63.627
X128.143Y-64.516
X128.27Y-80.442
X128.346Y-97.942
X128.372Y-78.384
X128.397Y-81.28
X128.473Y-60.198
X128.473Y-61.538
X128.549Y-97.155
X128.626Y-113.259
X128.702Y-115.062
X128.778Y-79.096
X128.778Y-95.166
X128.803Y-96.342
X128.905Y-63.246
X128.905Y-77.699
X129.032Y-62.23
X129.235Y-76.911
X129.515Y-95.86
X129.667Y-114.376
X129.997Y-92.659
X130.302Y-118.11
X130.81Y-94.234
X130.835Y-111.811
X131.166Y-93.091
X131.953Y-116.205
X132.537Y-69.799
X132.588Y-86.665
X132.842Y-58.674
X133.096Y-75.692
X133.629Y-117.907
X133.731Y-119.634
X134.366Y-101.854
X134.468Y-120.371
X134.595Y-118.796
X134.62Y-114.071
X134.823Y-115.621
X135.052Y-111.125
X135.052Y-112.471
X135.128Y-54.568
X135.128Y-71.374
X135.128Y-88.392
X135.382Y-102.87
X135.433Y-109.931
X135.56Y-119.405
X135.611Y-120.625
X135.814Y-114.63
X136.22Y-112.293
X136.246Y-113.462
X136.576Y-110.846
X136.627Y-108.788
X136.728Y-121.006
X136.754Y-118.999
X138.074Y-110.769
X138.176Y-108.814
X138.328Y-118.999
X138.354Y-121.056
X139.675Y-110.82
X139.929Y-121.006
X140.259Y-117.373
X140.462Y-108.458
X141.173Y-110.82
X141.199Y-108.814
X141.453Y-118.923
X141.478Y-121.107
X142.824Y-108.839
X142.85Y-110.82
X143.256Y-121.082
X143.281Y-118.974
X144.094Y-110.465
X144.17Y-109.195
X144.348Y-120.65
X144.374Y-119.431
X145.212Y-109.195
X145.237Y-110.49
X145.288Y-104.14
X145.415Y-120.65
X145.466Y-119.456
X145.542Y-115.316
X146.279Y-89.154
X147.625Y-94.539
X148.692Y-85.369
X148.692Y-95.225
X148.717Y-99.187
X149.25Y-86.004
X149.606Y-99.314
X154.178Y-84.328
T2
X133.848Y-104.394
X136.388Y-104.394
X138.928Y-104.394
X141.468Y-104.394
T3
X149.86Y-64.504
X149.86Y-66.794
X149.86Y-69.084
X149.86Y-71.374
X149.86Y-73.664
X151.84Y-63.354
X151.84Y-65.644
X151.84Y-67.934
X151.84Y-70.224
X151.84Y-72.514
X153.82Y-64.504
X153.82Y-66.794
X153.82Y-69.084
X153.82Y-71.374
X153.82Y-73.664
T4
X151.84Y-56.584
X151.84Y-81.584
T0
M30
