%TF.GenerationSoftware,KiCad,Pcbnew,7.0.9-7.0.9~ubuntu22.04.1*%
%TF.CreationDate,2023-12-05T21:20:52+02:00*%
%TF.ProjectId,iCE40HX-expansion,69434534-3048-4582-9d65-7870616e7369,rev?*%
%TF.SameCoordinates,Original*%
%TF.FileFunction,Drillmap*%
%TF.FilePolarity,Positive*%
%FSLAX45Y45*%
G04 Gerber Fmt 4.5, Leading zero omitted, Abs format (unit mm)*
G04 Created by KiCad (PCBNEW 7.0.9-7.0.9~ubuntu22.04.1) date 2023-12-05 21:20:52*
%MOMM*%
%LPD*%
G01*
G04 APERTURE LIST*
%ADD10C,0.100000*%
%ADD11C,0.200000*%
%ADD12C,0.160000*%
G04 APERTURE END LIST*
D10*
X15697200Y-5241900D02*
G75*
G03*
X15497200Y-5041900I-200000J0D01*
G01*
X15697200Y-5241900D02*
X15697200Y-12030100D01*
X10350500Y-12030100D02*
X10350500Y-5241900D01*
X15497200Y-12230100D02*
X10550500Y-12230100D01*
X10350500Y-12030100D02*
G75*
G03*
X10550500Y-12230100I200000J0D01*
G01*
X10550500Y-5041900D02*
G75*
G03*
X10350500Y-5241900I0J-200000D01*
G01*
X10550500Y-5041900D02*
X15497200Y-5041900D01*
X15497200Y-12230100D02*
G75*
G03*
X15697200Y-12030100I0J200000D01*
G01*
D11*
D12*
X14735800Y-10410200D02*
X14895800Y-10570200D01*
X14895800Y-10410200D02*
X14735800Y-10570200D01*
X14739400Y-11604000D02*
X14899400Y-11764000D01*
X14899400Y-11604000D02*
X14739400Y-11764000D01*
X15435800Y-10410200D02*
X15595800Y-10570200D01*
X15595800Y-10410200D02*
X15435800Y-10570200D01*
X15439400Y-11604000D02*
X15599400Y-11764000D01*
X15599400Y-11604000D02*
X15439400Y-11764000D01*
D11*
X10606277Y-12546584D02*
X10606277Y-12346584D01*
X10606277Y-12346584D02*
X10653896Y-12346584D01*
X10653896Y-12346584D02*
X10682467Y-12356108D01*
X10682467Y-12356108D02*
X10701515Y-12375155D01*
X10701515Y-12375155D02*
X10711039Y-12394203D01*
X10711039Y-12394203D02*
X10720563Y-12432298D01*
X10720563Y-12432298D02*
X10720563Y-12460869D01*
X10720563Y-12460869D02*
X10711039Y-12498965D01*
X10711039Y-12498965D02*
X10701515Y-12518012D01*
X10701515Y-12518012D02*
X10682467Y-12537060D01*
X10682467Y-12537060D02*
X10653896Y-12546584D01*
X10653896Y-12546584D02*
X10606277Y-12546584D01*
X10806277Y-12546584D02*
X10806277Y-12413250D01*
X10806277Y-12451346D02*
X10815801Y-12432298D01*
X10815801Y-12432298D02*
X10825324Y-12422774D01*
X10825324Y-12422774D02*
X10844372Y-12413250D01*
X10844372Y-12413250D02*
X10863420Y-12413250D01*
X10930086Y-12546584D02*
X10930086Y-12413250D01*
X10930086Y-12346584D02*
X10920563Y-12356108D01*
X10920563Y-12356108D02*
X10930086Y-12365631D01*
X10930086Y-12365631D02*
X10939610Y-12356108D01*
X10939610Y-12356108D02*
X10930086Y-12346584D01*
X10930086Y-12346584D02*
X10930086Y-12365631D01*
X11053896Y-12546584D02*
X11034848Y-12537060D01*
X11034848Y-12537060D02*
X11025324Y-12518012D01*
X11025324Y-12518012D02*
X11025324Y-12346584D01*
X11158658Y-12546584D02*
X11139610Y-12537060D01*
X11139610Y-12537060D02*
X11130086Y-12518012D01*
X11130086Y-12518012D02*
X11130086Y-12346584D01*
X11387229Y-12546584D02*
X11387229Y-12346584D01*
X11387229Y-12346584D02*
X11453896Y-12489441D01*
X11453896Y-12489441D02*
X11520562Y-12346584D01*
X11520562Y-12346584D02*
X11520562Y-12546584D01*
X11701515Y-12546584D02*
X11701515Y-12441822D01*
X11701515Y-12441822D02*
X11691991Y-12422774D01*
X11691991Y-12422774D02*
X11672943Y-12413250D01*
X11672943Y-12413250D02*
X11634848Y-12413250D01*
X11634848Y-12413250D02*
X11615801Y-12422774D01*
X11701515Y-12537060D02*
X11682467Y-12546584D01*
X11682467Y-12546584D02*
X11634848Y-12546584D01*
X11634848Y-12546584D02*
X11615801Y-12537060D01*
X11615801Y-12537060D02*
X11606277Y-12518012D01*
X11606277Y-12518012D02*
X11606277Y-12498965D01*
X11606277Y-12498965D02*
X11615801Y-12479917D01*
X11615801Y-12479917D02*
X11634848Y-12470393D01*
X11634848Y-12470393D02*
X11682467Y-12470393D01*
X11682467Y-12470393D02*
X11701515Y-12460869D01*
X11796753Y-12413250D02*
X11796753Y-12613250D01*
X11796753Y-12422774D02*
X11815801Y-12413250D01*
X11815801Y-12413250D02*
X11853896Y-12413250D01*
X11853896Y-12413250D02*
X11872943Y-12422774D01*
X11872943Y-12422774D02*
X11882467Y-12432298D01*
X11882467Y-12432298D02*
X11891991Y-12451346D01*
X11891991Y-12451346D02*
X11891991Y-12508488D01*
X11891991Y-12508488D02*
X11882467Y-12527536D01*
X11882467Y-12527536D02*
X11872943Y-12537060D01*
X11872943Y-12537060D02*
X11853896Y-12546584D01*
X11853896Y-12546584D02*
X11815801Y-12546584D01*
X11815801Y-12546584D02*
X11796753Y-12537060D01*
X11977705Y-12527536D02*
X11987229Y-12537060D01*
X11987229Y-12537060D02*
X11977705Y-12546584D01*
X11977705Y-12546584D02*
X11968182Y-12537060D01*
X11968182Y-12537060D02*
X11977705Y-12527536D01*
X11977705Y-12527536D02*
X11977705Y-12546584D01*
X11977705Y-12422774D02*
X11987229Y-12432298D01*
X11987229Y-12432298D02*
X11977705Y-12441822D01*
X11977705Y-12441822D02*
X11968182Y-12432298D01*
X11968182Y-12432298D02*
X11977705Y-12422774D01*
X11977705Y-12422774D02*
X11977705Y-12441822D01*
D12*
X10185500Y-12795100D02*
X10345500Y-12955100D01*
X10345500Y-12795100D02*
X10185500Y-12955100D01*
D11*
X10711039Y-12966584D02*
X10596753Y-12966584D01*
X10653896Y-12966584D02*
X10653896Y-12766584D01*
X10653896Y-12766584D02*
X10634848Y-12795155D01*
X10634848Y-12795155D02*
X10615801Y-12814203D01*
X10615801Y-12814203D02*
X10596753Y-12823727D01*
X10796753Y-12947536D02*
X10806277Y-12957060D01*
X10806277Y-12957060D02*
X10796753Y-12966584D01*
X10796753Y-12966584D02*
X10787229Y-12957060D01*
X10787229Y-12957060D02*
X10796753Y-12947536D01*
X10796753Y-12947536D02*
X10796753Y-12966584D01*
X10977705Y-12766584D02*
X10939610Y-12766584D01*
X10939610Y-12766584D02*
X10920563Y-12776108D01*
X10920563Y-12776108D02*
X10911039Y-12785631D01*
X10911039Y-12785631D02*
X10891991Y-12814203D01*
X10891991Y-12814203D02*
X10882467Y-12852298D01*
X10882467Y-12852298D02*
X10882467Y-12928488D01*
X10882467Y-12928488D02*
X10891991Y-12947536D01*
X10891991Y-12947536D02*
X10901515Y-12957060D01*
X10901515Y-12957060D02*
X10920563Y-12966584D01*
X10920563Y-12966584D02*
X10958658Y-12966584D01*
X10958658Y-12966584D02*
X10977705Y-12957060D01*
X10977705Y-12957060D02*
X10987229Y-12947536D01*
X10987229Y-12947536D02*
X10996753Y-12928488D01*
X10996753Y-12928488D02*
X10996753Y-12880869D01*
X10996753Y-12880869D02*
X10987229Y-12861822D01*
X10987229Y-12861822D02*
X10977705Y-12852298D01*
X10977705Y-12852298D02*
X10958658Y-12842774D01*
X10958658Y-12842774D02*
X10920563Y-12842774D01*
X10920563Y-12842774D02*
X10901515Y-12852298D01*
X10901515Y-12852298D02*
X10891991Y-12861822D01*
X10891991Y-12861822D02*
X10882467Y-12880869D01*
X11120563Y-12766584D02*
X11139610Y-12766584D01*
X11139610Y-12766584D02*
X11158658Y-12776108D01*
X11158658Y-12776108D02*
X11168182Y-12785631D01*
X11168182Y-12785631D02*
X11177705Y-12804679D01*
X11177705Y-12804679D02*
X11187229Y-12842774D01*
X11187229Y-12842774D02*
X11187229Y-12890393D01*
X11187229Y-12890393D02*
X11177705Y-12928488D01*
X11177705Y-12928488D02*
X11168182Y-12947536D01*
X11168182Y-12947536D02*
X11158658Y-12957060D01*
X11158658Y-12957060D02*
X11139610Y-12966584D01*
X11139610Y-12966584D02*
X11120563Y-12966584D01*
X11120563Y-12966584D02*
X11101515Y-12957060D01*
X11101515Y-12957060D02*
X11091991Y-12947536D01*
X11091991Y-12947536D02*
X11082467Y-12928488D01*
X11082467Y-12928488D02*
X11072944Y-12890393D01*
X11072944Y-12890393D02*
X11072944Y-12842774D01*
X11072944Y-12842774D02*
X11082467Y-12804679D01*
X11082467Y-12804679D02*
X11091991Y-12785631D01*
X11091991Y-12785631D02*
X11101515Y-12776108D01*
X11101515Y-12776108D02*
X11120563Y-12766584D01*
X11311039Y-12766584D02*
X11330086Y-12766584D01*
X11330086Y-12766584D02*
X11349134Y-12776108D01*
X11349134Y-12776108D02*
X11358658Y-12785631D01*
X11358658Y-12785631D02*
X11368182Y-12804679D01*
X11368182Y-12804679D02*
X11377705Y-12842774D01*
X11377705Y-12842774D02*
X11377705Y-12890393D01*
X11377705Y-12890393D02*
X11368182Y-12928488D01*
X11368182Y-12928488D02*
X11358658Y-12947536D01*
X11358658Y-12947536D02*
X11349134Y-12957060D01*
X11349134Y-12957060D02*
X11330086Y-12966584D01*
X11330086Y-12966584D02*
X11311039Y-12966584D01*
X11311039Y-12966584D02*
X11291991Y-12957060D01*
X11291991Y-12957060D02*
X11282467Y-12947536D01*
X11282467Y-12947536D02*
X11272943Y-12928488D01*
X11272943Y-12928488D02*
X11263420Y-12890393D01*
X11263420Y-12890393D02*
X11263420Y-12842774D01*
X11263420Y-12842774D02*
X11272943Y-12804679D01*
X11272943Y-12804679D02*
X11282467Y-12785631D01*
X11282467Y-12785631D02*
X11291991Y-12776108D01*
X11291991Y-12776108D02*
X11311039Y-12766584D01*
X11463420Y-12966584D02*
X11463420Y-12833250D01*
X11463420Y-12852298D02*
X11472943Y-12842774D01*
X11472943Y-12842774D02*
X11491991Y-12833250D01*
X11491991Y-12833250D02*
X11520563Y-12833250D01*
X11520563Y-12833250D02*
X11539610Y-12842774D01*
X11539610Y-12842774D02*
X11549134Y-12861822D01*
X11549134Y-12861822D02*
X11549134Y-12966584D01*
X11549134Y-12861822D02*
X11558658Y-12842774D01*
X11558658Y-12842774D02*
X11577705Y-12833250D01*
X11577705Y-12833250D02*
X11606277Y-12833250D01*
X11606277Y-12833250D02*
X11625324Y-12842774D01*
X11625324Y-12842774D02*
X11634848Y-12861822D01*
X11634848Y-12861822D02*
X11634848Y-12966584D01*
X11730086Y-12966584D02*
X11730086Y-12833250D01*
X11730086Y-12852298D02*
X11739610Y-12842774D01*
X11739610Y-12842774D02*
X11758658Y-12833250D01*
X11758658Y-12833250D02*
X11787229Y-12833250D01*
X11787229Y-12833250D02*
X11806277Y-12842774D01*
X11806277Y-12842774D02*
X11815801Y-12861822D01*
X11815801Y-12861822D02*
X11815801Y-12966584D01*
X11815801Y-12861822D02*
X11825324Y-12842774D01*
X11825324Y-12842774D02*
X11844372Y-12833250D01*
X11844372Y-12833250D02*
X11872943Y-12833250D01*
X11872943Y-12833250D02*
X11891991Y-12842774D01*
X11891991Y-12842774D02*
X11901515Y-12861822D01*
X11901515Y-12861822D02*
X11901515Y-12966584D01*
X12291991Y-12757060D02*
X12120563Y-13014203D01*
X12549134Y-12766584D02*
X12568182Y-12766584D01*
X12568182Y-12766584D02*
X12587229Y-12776108D01*
X12587229Y-12776108D02*
X12596753Y-12785631D01*
X12596753Y-12785631D02*
X12606277Y-12804679D01*
X12606277Y-12804679D02*
X12615801Y-12842774D01*
X12615801Y-12842774D02*
X12615801Y-12890393D01*
X12615801Y-12890393D02*
X12606277Y-12928488D01*
X12606277Y-12928488D02*
X12596753Y-12947536D01*
X12596753Y-12947536D02*
X12587229Y-12957060D01*
X12587229Y-12957060D02*
X12568182Y-12966584D01*
X12568182Y-12966584D02*
X12549134Y-12966584D01*
X12549134Y-12966584D02*
X12530086Y-12957060D01*
X12530086Y-12957060D02*
X12520563Y-12947536D01*
X12520563Y-12947536D02*
X12511039Y-12928488D01*
X12511039Y-12928488D02*
X12501515Y-12890393D01*
X12501515Y-12890393D02*
X12501515Y-12842774D01*
X12501515Y-12842774D02*
X12511039Y-12804679D01*
X12511039Y-12804679D02*
X12520563Y-12785631D01*
X12520563Y-12785631D02*
X12530086Y-12776108D01*
X12530086Y-12776108D02*
X12549134Y-12766584D01*
X12701515Y-12947536D02*
X12711039Y-12957060D01*
X12711039Y-12957060D02*
X12701515Y-12966584D01*
X12701515Y-12966584D02*
X12691991Y-12957060D01*
X12691991Y-12957060D02*
X12701515Y-12947536D01*
X12701515Y-12947536D02*
X12701515Y-12966584D01*
X12834848Y-12766584D02*
X12853896Y-12766584D01*
X12853896Y-12766584D02*
X12872944Y-12776108D01*
X12872944Y-12776108D02*
X12882467Y-12785631D01*
X12882467Y-12785631D02*
X12891991Y-12804679D01*
X12891991Y-12804679D02*
X12901515Y-12842774D01*
X12901515Y-12842774D02*
X12901515Y-12890393D01*
X12901515Y-12890393D02*
X12891991Y-12928488D01*
X12891991Y-12928488D02*
X12882467Y-12947536D01*
X12882467Y-12947536D02*
X12872944Y-12957060D01*
X12872944Y-12957060D02*
X12853896Y-12966584D01*
X12853896Y-12966584D02*
X12834848Y-12966584D01*
X12834848Y-12966584D02*
X12815801Y-12957060D01*
X12815801Y-12957060D02*
X12806277Y-12947536D01*
X12806277Y-12947536D02*
X12796753Y-12928488D01*
X12796753Y-12928488D02*
X12787229Y-12890393D01*
X12787229Y-12890393D02*
X12787229Y-12842774D01*
X12787229Y-12842774D02*
X12796753Y-12804679D01*
X12796753Y-12804679D02*
X12806277Y-12785631D01*
X12806277Y-12785631D02*
X12815801Y-12776108D01*
X12815801Y-12776108D02*
X12834848Y-12766584D01*
X13072944Y-12766584D02*
X13034848Y-12766584D01*
X13034848Y-12766584D02*
X13015801Y-12776108D01*
X13015801Y-12776108D02*
X13006277Y-12785631D01*
X13006277Y-12785631D02*
X12987229Y-12814203D01*
X12987229Y-12814203D02*
X12977706Y-12852298D01*
X12977706Y-12852298D02*
X12977706Y-12928488D01*
X12977706Y-12928488D02*
X12987229Y-12947536D01*
X12987229Y-12947536D02*
X12996753Y-12957060D01*
X12996753Y-12957060D02*
X13015801Y-12966584D01*
X13015801Y-12966584D02*
X13053896Y-12966584D01*
X13053896Y-12966584D02*
X13072944Y-12957060D01*
X13072944Y-12957060D02*
X13082467Y-12947536D01*
X13082467Y-12947536D02*
X13091991Y-12928488D01*
X13091991Y-12928488D02*
X13091991Y-12880869D01*
X13091991Y-12880869D02*
X13082467Y-12861822D01*
X13082467Y-12861822D02*
X13072944Y-12852298D01*
X13072944Y-12852298D02*
X13053896Y-12842774D01*
X13053896Y-12842774D02*
X13015801Y-12842774D01*
X13015801Y-12842774D02*
X12996753Y-12852298D01*
X12996753Y-12852298D02*
X12987229Y-12861822D01*
X12987229Y-12861822D02*
X12977706Y-12880869D01*
X13158658Y-12766584D02*
X13282467Y-12766584D01*
X13282467Y-12766584D02*
X13215801Y-12842774D01*
X13215801Y-12842774D02*
X13244372Y-12842774D01*
X13244372Y-12842774D02*
X13263420Y-12852298D01*
X13263420Y-12852298D02*
X13272944Y-12861822D01*
X13272944Y-12861822D02*
X13282467Y-12880869D01*
X13282467Y-12880869D02*
X13282467Y-12928488D01*
X13282467Y-12928488D02*
X13272944Y-12947536D01*
X13272944Y-12947536D02*
X13263420Y-12957060D01*
X13263420Y-12957060D02*
X13244372Y-12966584D01*
X13244372Y-12966584D02*
X13187229Y-12966584D01*
X13187229Y-12966584D02*
X13168182Y-12957060D01*
X13168182Y-12957060D02*
X13158658Y-12947536D01*
X13406277Y-12766584D02*
X13425325Y-12766584D01*
X13425325Y-12766584D02*
X13444372Y-12776108D01*
X13444372Y-12776108D02*
X13453896Y-12785631D01*
X13453896Y-12785631D02*
X13463420Y-12804679D01*
X13463420Y-12804679D02*
X13472944Y-12842774D01*
X13472944Y-12842774D02*
X13472944Y-12890393D01*
X13472944Y-12890393D02*
X13463420Y-12928488D01*
X13463420Y-12928488D02*
X13453896Y-12947536D01*
X13453896Y-12947536D02*
X13444372Y-12957060D01*
X13444372Y-12957060D02*
X13425325Y-12966584D01*
X13425325Y-12966584D02*
X13406277Y-12966584D01*
X13406277Y-12966584D02*
X13387229Y-12957060D01*
X13387229Y-12957060D02*
X13377706Y-12947536D01*
X13377706Y-12947536D02*
X13368182Y-12928488D01*
X13368182Y-12928488D02*
X13358658Y-12890393D01*
X13358658Y-12890393D02*
X13358658Y-12842774D01*
X13358658Y-12842774D02*
X13368182Y-12804679D01*
X13368182Y-12804679D02*
X13377706Y-12785631D01*
X13377706Y-12785631D02*
X13387229Y-12776108D01*
X13387229Y-12776108D02*
X13406277Y-12766584D01*
X13549134Y-12766584D02*
X13549134Y-12804679D01*
X13625325Y-12766584D02*
X13625325Y-12804679D01*
X13920563Y-13042774D02*
X13911039Y-13033250D01*
X13911039Y-13033250D02*
X13891991Y-13004679D01*
X13891991Y-13004679D02*
X13882468Y-12985631D01*
X13882468Y-12985631D02*
X13872944Y-12957060D01*
X13872944Y-12957060D02*
X13863420Y-12909441D01*
X13863420Y-12909441D02*
X13863420Y-12871346D01*
X13863420Y-12871346D02*
X13872944Y-12823727D01*
X13872944Y-12823727D02*
X13882468Y-12795155D01*
X13882468Y-12795155D02*
X13891991Y-12776108D01*
X13891991Y-12776108D02*
X13911039Y-12747536D01*
X13911039Y-12747536D02*
X13920563Y-12738012D01*
X14082468Y-12833250D02*
X14082468Y-12966584D01*
X14034848Y-12757060D02*
X13987229Y-12899917D01*
X13987229Y-12899917D02*
X14111039Y-12899917D01*
X14339610Y-12966584D02*
X14339610Y-12766584D01*
X14425325Y-12966584D02*
X14425325Y-12861822D01*
X14425325Y-12861822D02*
X14415801Y-12842774D01*
X14415801Y-12842774D02*
X14396753Y-12833250D01*
X14396753Y-12833250D02*
X14368182Y-12833250D01*
X14368182Y-12833250D02*
X14349134Y-12842774D01*
X14349134Y-12842774D02*
X14339610Y-12852298D01*
X14549134Y-12966584D02*
X14530087Y-12957060D01*
X14530087Y-12957060D02*
X14520563Y-12947536D01*
X14520563Y-12947536D02*
X14511039Y-12928488D01*
X14511039Y-12928488D02*
X14511039Y-12871346D01*
X14511039Y-12871346D02*
X14520563Y-12852298D01*
X14520563Y-12852298D02*
X14530087Y-12842774D01*
X14530087Y-12842774D02*
X14549134Y-12833250D01*
X14549134Y-12833250D02*
X14577706Y-12833250D01*
X14577706Y-12833250D02*
X14596753Y-12842774D01*
X14596753Y-12842774D02*
X14606277Y-12852298D01*
X14606277Y-12852298D02*
X14615801Y-12871346D01*
X14615801Y-12871346D02*
X14615801Y-12928488D01*
X14615801Y-12928488D02*
X14606277Y-12947536D01*
X14606277Y-12947536D02*
X14596753Y-12957060D01*
X14596753Y-12957060D02*
X14577706Y-12966584D01*
X14577706Y-12966584D02*
X14549134Y-12966584D01*
X14730087Y-12966584D02*
X14711039Y-12957060D01*
X14711039Y-12957060D02*
X14701515Y-12938012D01*
X14701515Y-12938012D02*
X14701515Y-12766584D01*
X14882468Y-12957060D02*
X14863420Y-12966584D01*
X14863420Y-12966584D02*
X14825325Y-12966584D01*
X14825325Y-12966584D02*
X14806277Y-12957060D01*
X14806277Y-12957060D02*
X14796753Y-12938012D01*
X14796753Y-12938012D02*
X14796753Y-12861822D01*
X14796753Y-12861822D02*
X14806277Y-12842774D01*
X14806277Y-12842774D02*
X14825325Y-12833250D01*
X14825325Y-12833250D02*
X14863420Y-12833250D01*
X14863420Y-12833250D02*
X14882468Y-12842774D01*
X14882468Y-12842774D02*
X14891991Y-12861822D01*
X14891991Y-12861822D02*
X14891991Y-12880869D01*
X14891991Y-12880869D02*
X14796753Y-12899917D01*
X14968182Y-12957060D02*
X14987230Y-12966584D01*
X14987230Y-12966584D02*
X15025325Y-12966584D01*
X15025325Y-12966584D02*
X15044372Y-12957060D01*
X15044372Y-12957060D02*
X15053896Y-12938012D01*
X15053896Y-12938012D02*
X15053896Y-12928488D01*
X15053896Y-12928488D02*
X15044372Y-12909441D01*
X15044372Y-12909441D02*
X15025325Y-12899917D01*
X15025325Y-12899917D02*
X14996753Y-12899917D01*
X14996753Y-12899917D02*
X14977706Y-12890393D01*
X14977706Y-12890393D02*
X14968182Y-12871346D01*
X14968182Y-12871346D02*
X14968182Y-12861822D01*
X14968182Y-12861822D02*
X14977706Y-12842774D01*
X14977706Y-12842774D02*
X14996753Y-12833250D01*
X14996753Y-12833250D02*
X15025325Y-12833250D01*
X15025325Y-12833250D02*
X15044372Y-12842774D01*
X15120563Y-13042774D02*
X15130087Y-13033250D01*
X15130087Y-13033250D02*
X15149134Y-13004679D01*
X15149134Y-13004679D02*
X15158658Y-12985631D01*
X15158658Y-12985631D02*
X15168182Y-12957060D01*
X15168182Y-12957060D02*
X15177706Y-12909441D01*
X15177706Y-12909441D02*
X15177706Y-12871346D01*
X15177706Y-12871346D02*
X15168182Y-12823727D01*
X15168182Y-12823727D02*
X15158658Y-12795155D01*
X15158658Y-12795155D02*
X15149134Y-12776108D01*
X15149134Y-12776108D02*
X15130087Y-12747536D01*
X15130087Y-12747536D02*
X15120563Y-12738012D01*
X15482468Y-13042774D02*
X15472944Y-13033250D01*
X15472944Y-13033250D02*
X15453896Y-13004679D01*
X15453896Y-13004679D02*
X15444372Y-12985631D01*
X15444372Y-12985631D02*
X15434849Y-12957060D01*
X15434849Y-12957060D02*
X15425325Y-12909441D01*
X15425325Y-12909441D02*
X15425325Y-12871346D01*
X15425325Y-12871346D02*
X15434849Y-12823727D01*
X15434849Y-12823727D02*
X15444372Y-12795155D01*
X15444372Y-12795155D02*
X15453896Y-12776108D01*
X15453896Y-12776108D02*
X15472944Y-12747536D01*
X15472944Y-12747536D02*
X15482468Y-12738012D01*
X15558658Y-12833250D02*
X15558658Y-12966584D01*
X15558658Y-12852298D02*
X15568182Y-12842774D01*
X15568182Y-12842774D02*
X15587230Y-12833250D01*
X15587230Y-12833250D02*
X15615801Y-12833250D01*
X15615801Y-12833250D02*
X15634849Y-12842774D01*
X15634849Y-12842774D02*
X15644372Y-12861822D01*
X15644372Y-12861822D02*
X15644372Y-12966584D01*
X15768182Y-12966584D02*
X15749134Y-12957060D01*
X15749134Y-12957060D02*
X15739611Y-12947536D01*
X15739611Y-12947536D02*
X15730087Y-12928488D01*
X15730087Y-12928488D02*
X15730087Y-12871346D01*
X15730087Y-12871346D02*
X15739611Y-12852298D01*
X15739611Y-12852298D02*
X15749134Y-12842774D01*
X15749134Y-12842774D02*
X15768182Y-12833250D01*
X15768182Y-12833250D02*
X15796753Y-12833250D01*
X15796753Y-12833250D02*
X15815801Y-12842774D01*
X15815801Y-12842774D02*
X15825325Y-12852298D01*
X15825325Y-12852298D02*
X15834849Y-12871346D01*
X15834849Y-12871346D02*
X15834849Y-12928488D01*
X15834849Y-12928488D02*
X15825325Y-12947536D01*
X15825325Y-12947536D02*
X15815801Y-12957060D01*
X15815801Y-12957060D02*
X15796753Y-12966584D01*
X15796753Y-12966584D02*
X15768182Y-12966584D01*
X15891992Y-12833250D02*
X15968182Y-12833250D01*
X15920563Y-12766584D02*
X15920563Y-12938012D01*
X15920563Y-12938012D02*
X15930087Y-12957060D01*
X15930087Y-12957060D02*
X15949134Y-12966584D01*
X15949134Y-12966584D02*
X15968182Y-12966584D01*
X16187230Y-12833250D02*
X16187230Y-13033250D01*
X16187230Y-12842774D02*
X16206277Y-12833250D01*
X16206277Y-12833250D02*
X16244373Y-12833250D01*
X16244373Y-12833250D02*
X16263420Y-12842774D01*
X16263420Y-12842774D02*
X16272944Y-12852298D01*
X16272944Y-12852298D02*
X16282468Y-12871346D01*
X16282468Y-12871346D02*
X16282468Y-12928488D01*
X16282468Y-12928488D02*
X16272944Y-12947536D01*
X16272944Y-12947536D02*
X16263420Y-12957060D01*
X16263420Y-12957060D02*
X16244373Y-12966584D01*
X16244373Y-12966584D02*
X16206277Y-12966584D01*
X16206277Y-12966584D02*
X16187230Y-12957060D01*
X16396753Y-12966584D02*
X16377706Y-12957060D01*
X16377706Y-12957060D02*
X16368182Y-12938012D01*
X16368182Y-12938012D02*
X16368182Y-12766584D01*
X16558658Y-12966584D02*
X16558658Y-12861822D01*
X16558658Y-12861822D02*
X16549134Y-12842774D01*
X16549134Y-12842774D02*
X16530087Y-12833250D01*
X16530087Y-12833250D02*
X16491992Y-12833250D01*
X16491992Y-12833250D02*
X16472944Y-12842774D01*
X16558658Y-12957060D02*
X16539611Y-12966584D01*
X16539611Y-12966584D02*
X16491992Y-12966584D01*
X16491992Y-12966584D02*
X16472944Y-12957060D01*
X16472944Y-12957060D02*
X16463420Y-12938012D01*
X16463420Y-12938012D02*
X16463420Y-12918965D01*
X16463420Y-12918965D02*
X16472944Y-12899917D01*
X16472944Y-12899917D02*
X16491992Y-12890393D01*
X16491992Y-12890393D02*
X16539611Y-12890393D01*
X16539611Y-12890393D02*
X16558658Y-12880869D01*
X16625325Y-12833250D02*
X16701515Y-12833250D01*
X16653896Y-12766584D02*
X16653896Y-12938012D01*
X16653896Y-12938012D02*
X16663420Y-12957060D01*
X16663420Y-12957060D02*
X16682468Y-12966584D01*
X16682468Y-12966584D02*
X16701515Y-12966584D01*
X16844373Y-12957060D02*
X16825325Y-12966584D01*
X16825325Y-12966584D02*
X16787230Y-12966584D01*
X16787230Y-12966584D02*
X16768182Y-12957060D01*
X16768182Y-12957060D02*
X16758658Y-12938012D01*
X16758658Y-12938012D02*
X16758658Y-12861822D01*
X16758658Y-12861822D02*
X16768182Y-12842774D01*
X16768182Y-12842774D02*
X16787230Y-12833250D01*
X16787230Y-12833250D02*
X16825325Y-12833250D01*
X16825325Y-12833250D02*
X16844373Y-12842774D01*
X16844373Y-12842774D02*
X16853896Y-12861822D01*
X16853896Y-12861822D02*
X16853896Y-12880869D01*
X16853896Y-12880869D02*
X16758658Y-12899917D01*
X17025325Y-12966584D02*
X17025325Y-12766584D01*
X17025325Y-12957060D02*
X17006277Y-12966584D01*
X17006277Y-12966584D02*
X16968182Y-12966584D01*
X16968182Y-12966584D02*
X16949135Y-12957060D01*
X16949135Y-12957060D02*
X16939611Y-12947536D01*
X16939611Y-12947536D02*
X16930087Y-12928488D01*
X16930087Y-12928488D02*
X16930087Y-12871346D01*
X16930087Y-12871346D02*
X16939611Y-12852298D01*
X16939611Y-12852298D02*
X16949135Y-12842774D01*
X16949135Y-12842774D02*
X16968182Y-12833250D01*
X16968182Y-12833250D02*
X17006277Y-12833250D01*
X17006277Y-12833250D02*
X17025325Y-12842774D01*
X17101516Y-13042774D02*
X17111039Y-13033250D01*
X17111039Y-13033250D02*
X17130087Y-13004679D01*
X17130087Y-13004679D02*
X17139611Y-12985631D01*
X17139611Y-12985631D02*
X17149135Y-12957060D01*
X17149135Y-12957060D02*
X17158658Y-12909441D01*
X17158658Y-12909441D02*
X17158658Y-12871346D01*
X17158658Y-12871346D02*
X17149135Y-12823727D01*
X17149135Y-12823727D02*
X17139611Y-12795155D01*
X17139611Y-12795155D02*
X17130087Y-12776108D01*
X17130087Y-12776108D02*
X17111039Y-12747536D01*
X17111039Y-12747536D02*
X17101516Y-12738012D01*
M02*
