%TF.GenerationSoftware,KiCad,Pcbnew,7.0.9-7.0.9~ubuntu22.04.1*%
%TF.CreationDate,2023-12-05T21:20:52+02:00*%
%TF.ProjectId,iCE40HX-expansion,69434534-3048-4582-9d65-7870616e7369,rev?*%
%TF.SameCoordinates,Original*%
%TF.FileFunction,Drillmap*%
%TF.FilePolarity,Positive*%
%FSLAX45Y45*%
G04 Gerber Fmt 4.5, Leading zero omitted, Abs format (unit mm)*
G04 Created by KiCad (PCBNEW 7.0.9-7.0.9~ubuntu22.04.1) date 2023-12-05 21:20:52*
%MOMM*%
%LPD*%
G01*
G04 APERTURE LIST*
%ADD10C,0.100000*%
%ADD11C,0.200000*%
%ADD12C,0.110002*%
%ADD13C,0.339999*%
G04 APERTURE END LIST*
D10*
X15697200Y-5241900D02*
G75*
G03*
X15497200Y-5041900I-200000J0D01*
G01*
X15697200Y-5241900D02*
X15697200Y-12030100D01*
X10350500Y-12030100D02*
X10350500Y-5241900D01*
X15497200Y-12230100D02*
X10550500Y-12230100D01*
X10350500Y-12030100D02*
G75*
G03*
X10550500Y-12230100I200000J0D01*
G01*
X10550500Y-5041900D02*
G75*
G03*
X10350500Y-5241900I0J-200000D01*
G01*
X10550500Y-5041900D02*
X15497200Y-5041900D01*
X15497200Y-12230100D02*
G75*
G03*
X15697200Y-12030100I0J200000D01*
G01*
D11*
D10*
X10561560Y-5555220D02*
X10591560Y-5585220D01*
X10591560Y-5555220D02*
X10561560Y-5585220D01*
X10609820Y-5819380D02*
X10639820Y-5849380D01*
X10639820Y-5819380D02*
X10609820Y-5849380D01*
X10619980Y-6025120D02*
X10649980Y-6055120D01*
X10649980Y-6025120D02*
X10619980Y-6055120D01*
X10721580Y-7935200D02*
X10751580Y-7965200D01*
X10751580Y-7935200D02*
X10721580Y-7965200D01*
X10724120Y-6921740D02*
X10754120Y-6951740D01*
X10754120Y-6921740D02*
X10724120Y-6951740D01*
X10724120Y-7048740D02*
X10754120Y-7078740D01*
X10754120Y-7048740D02*
X10724120Y-7078740D01*
X10724120Y-7175740D02*
X10754120Y-7205740D01*
X10754120Y-7175740D02*
X10724120Y-7205740D01*
X10724120Y-7302740D02*
X10754120Y-7332740D01*
X10754120Y-7302740D02*
X10724120Y-7332740D01*
X10724120Y-7554200D02*
X10754120Y-7584200D01*
X10754120Y-7554200D02*
X10724120Y-7584200D01*
X10724120Y-7808200D02*
X10754120Y-7838200D01*
X10754120Y-7808200D02*
X10724120Y-7838200D01*
X10726660Y-7429740D02*
X10756660Y-7459740D01*
X10756660Y-7429740D02*
X10726660Y-7459740D01*
X10726660Y-7683740D02*
X10756660Y-7713740D01*
X10756660Y-7683740D02*
X10726660Y-7713740D01*
X10934940Y-6238480D02*
X10964940Y-6268480D01*
X10964940Y-6238480D02*
X10934940Y-6268480D01*
X10983200Y-5395200D02*
X11013200Y-5425200D01*
X11013200Y-5395200D02*
X10983200Y-5425200D01*
X11077180Y-8443200D02*
X11107180Y-8473200D01*
X11107180Y-8443200D02*
X11077180Y-8473200D01*
X11079720Y-8567660D02*
X11109720Y-8597660D01*
X11109720Y-8567660D02*
X11079720Y-8597660D01*
X11079720Y-8702280D02*
X11109720Y-8732280D01*
X11109720Y-8702280D02*
X11079720Y-8732280D01*
X11082260Y-7810740D02*
X11112260Y-7840740D01*
X11112260Y-7810740D02*
X11082260Y-7840740D01*
X11082260Y-8064740D02*
X11112260Y-8094740D01*
X11112260Y-8064740D02*
X11082260Y-8094740D01*
X11084800Y-7302740D02*
X11114800Y-7332740D01*
X11114800Y-7302740D02*
X11084800Y-7332740D01*
X11084800Y-7429740D02*
X11114800Y-7459740D01*
X11114800Y-7429740D02*
X11084800Y-7459740D01*
X11084800Y-7556740D02*
X11114800Y-7586740D01*
X11114800Y-7556740D02*
X11084800Y-7586740D01*
X11084800Y-7937740D02*
X11114800Y-7967740D01*
X11114800Y-7937740D02*
X11084800Y-7967740D01*
X11087340Y-7683740D02*
X11117340Y-7713740D01*
X11117340Y-7683740D02*
X11087340Y-7713740D01*
X11087340Y-8191740D02*
X11117340Y-8221740D01*
X11117340Y-8191740D02*
X11087340Y-8221740D01*
X11107660Y-9047720D02*
X11137660Y-9077720D01*
X11137660Y-9047720D02*
X11107660Y-9077720D01*
X11107660Y-9187420D02*
X11137660Y-9217420D01*
X11137660Y-9187420D02*
X11107660Y-9217420D01*
X11239740Y-9103600D02*
X11269740Y-9133600D01*
X11269740Y-9103600D02*
X11239740Y-9133600D01*
X11331180Y-11915380D02*
X11361180Y-11945380D01*
X11361180Y-11915380D02*
X11331180Y-11945380D01*
X11366740Y-11666460D02*
X11396740Y-11696460D01*
X11396740Y-11666460D02*
X11366740Y-11696460D01*
X11420080Y-7546580D02*
X11450080Y-7576580D01*
X11450080Y-7546580D02*
X11420080Y-7576580D01*
X11442940Y-7376400D02*
X11472940Y-7406400D01*
X11472940Y-7376400D02*
X11442940Y-7406400D01*
X11465800Y-7770100D02*
X11495800Y-7800100D01*
X11495800Y-7770100D02*
X11465800Y-7800100D01*
X11470880Y-7864080D02*
X11500880Y-7894080D01*
X11500880Y-7864080D02*
X11470880Y-7894080D01*
X11481040Y-11192500D02*
X11511040Y-11222500D01*
X11511040Y-11192500D02*
X11481040Y-11222500D01*
X11481040Y-11669000D02*
X11511040Y-11699000D01*
X11511040Y-11669000D02*
X11481040Y-11699000D01*
X11519140Y-7937740D02*
X11549140Y-7967740D01*
X11549140Y-7937740D02*
X11519140Y-7967740D01*
X11554700Y-12014440D02*
X11584700Y-12044440D01*
X11584700Y-12014440D02*
X11554700Y-12044440D01*
X11582640Y-11179800D02*
X11612640Y-11209800D01*
X11612640Y-11179800D02*
X11582640Y-11209800D01*
X12027140Y-12034760D02*
X12057140Y-12064760D01*
X12057140Y-12034760D02*
X12027140Y-12064760D01*
X12304000Y-11161000D02*
X12334000Y-11191000D01*
X12334000Y-11161000D02*
X12304000Y-11191000D01*
X12316700Y-11402300D02*
X12346700Y-11432300D01*
X12346700Y-11402300D02*
X12316700Y-11432300D01*
X12342100Y-11237200D02*
X12372100Y-11267200D01*
X12372100Y-11237200D02*
X12342100Y-11267200D01*
X12342100Y-11326100D02*
X12372100Y-11356100D01*
X12372100Y-11326100D02*
X12342100Y-11356100D01*
X12354800Y-9172180D02*
X12384800Y-9202180D01*
X12384800Y-9172180D02*
X12354800Y-9202180D01*
X12370040Y-9283940D02*
X12400040Y-9313940D01*
X12400040Y-9283940D02*
X12370040Y-9313940D01*
X12380200Y-5395200D02*
X12410200Y-5425200D01*
X12410200Y-5395200D02*
X12380200Y-5425200D01*
X12380200Y-11097500D02*
X12410200Y-11127500D01*
X12410200Y-11097500D02*
X12380200Y-11127500D01*
X12431000Y-5898120D02*
X12461000Y-5928120D01*
X12461000Y-5898120D02*
X12431000Y-5928120D01*
X12464020Y-9911320D02*
X12494020Y-9941320D01*
X12494020Y-9911320D02*
X12464020Y-9941320D01*
X12479260Y-5674600D02*
X12509260Y-5704600D01*
X12509260Y-5674600D02*
X12479260Y-5704600D01*
X12481800Y-11034000D02*
X12511800Y-11064000D01*
X12511800Y-11034000D02*
X12481800Y-11064000D01*
X12509740Y-8214600D02*
X12539740Y-8244600D01*
X12539740Y-8214600D02*
X12509740Y-8244600D01*
X12519900Y-6540740D02*
X12549900Y-6570740D01*
X12549900Y-6540740D02*
X12519900Y-6570740D01*
X12524980Y-5898120D02*
X12554980Y-5928120D01*
X12554980Y-5898120D02*
X12524980Y-5928120D01*
X12535140Y-5750800D02*
X12565140Y-5780800D01*
X12565140Y-5750800D02*
X12535140Y-5780800D01*
X12540220Y-10607280D02*
X12570220Y-10637280D01*
X12570220Y-10607280D02*
X12540220Y-10637280D01*
X12542760Y-9893540D02*
X12572760Y-9923540D01*
X12572760Y-9893540D02*
X12542760Y-9923540D01*
X12555460Y-10711420D02*
X12585460Y-10741420D01*
X12585460Y-10711420D02*
X12555460Y-10741420D01*
X12580860Y-6601700D02*
X12610860Y-6631700D01*
X12610860Y-6601700D02*
X12580860Y-6631700D01*
X12583400Y-11008600D02*
X12613400Y-11038600D01*
X12613400Y-11008600D02*
X12583400Y-11038600D01*
X12596100Y-5672060D02*
X12626100Y-5702060D01*
X12626100Y-5672060D02*
X12596100Y-5702060D01*
X12608800Y-10538700D02*
X12638800Y-10568700D01*
X12638800Y-10538700D02*
X12608800Y-10568700D01*
X12608800Y-10856200D02*
X12638800Y-10886200D01*
X12638800Y-10856200D02*
X12608800Y-10886200D01*
X12616420Y-8283180D02*
X12646420Y-8313180D01*
X12646420Y-8283180D02*
X12616420Y-8313180D01*
X12646900Y-11770600D02*
X12676900Y-11800600D01*
X12676900Y-11770600D02*
X12646900Y-11800600D01*
X12659600Y-11097500D02*
X12689600Y-11127500D01*
X12689600Y-11097500D02*
X12659600Y-11127500D01*
X12697700Y-11404840D02*
X12727700Y-11434840D01*
X12727700Y-11404840D02*
X12697700Y-11434840D01*
X12710400Y-11821400D02*
X12740400Y-11851400D01*
X12740400Y-11821400D02*
X12710400Y-11851400D01*
X12711219Y-10936661D02*
X12741219Y-10966661D01*
X12741219Y-10936661D02*
X12711219Y-10966661D01*
X12742150Y-10834610D02*
X12772150Y-10864610D01*
X12772150Y-10834610D02*
X12742150Y-10864610D01*
X12758660Y-9832580D02*
X12788660Y-9862580D01*
X12788660Y-9832580D02*
X12758660Y-9862580D01*
X12761200Y-6512800D02*
X12791200Y-6542800D01*
X12791200Y-6512800D02*
X12761200Y-6542800D01*
X12768820Y-11950940D02*
X12798820Y-11980940D01*
X12798820Y-11950940D02*
X12768820Y-11980940D01*
X12771360Y-6070840D02*
X12801360Y-6100840D01*
X12801360Y-6070840D02*
X12771360Y-6100840D01*
X12773900Y-8176500D02*
X12803900Y-8206500D01*
X12803900Y-8176500D02*
X12773900Y-8206500D01*
X12781520Y-5763500D02*
X12811520Y-5793500D01*
X12811520Y-5763500D02*
X12781520Y-5793500D01*
X12781520Y-7444980D02*
X12811520Y-7474980D01*
X12811520Y-7444980D02*
X12781520Y-7474980D01*
X12784060Y-5666980D02*
X12814060Y-5696980D01*
X12814060Y-5666980D02*
X12784060Y-5696980D01*
X12784060Y-7348460D02*
X12814060Y-7378460D01*
X12814060Y-7348460D02*
X12784060Y-7378460D01*
X12784060Y-9121380D02*
X12814060Y-9151380D01*
X12814060Y-9121380D02*
X12784060Y-9151380D01*
X12786600Y-9024860D02*
X12816600Y-9054860D01*
X12816600Y-9024860D02*
X12786600Y-9054860D01*
X12786600Y-11846800D02*
X12816600Y-11876800D01*
X12816600Y-11846800D02*
X12786600Y-11876800D01*
X12794220Y-7947900D02*
X12824220Y-7977900D01*
X12824220Y-7947900D02*
X12794220Y-7977900D01*
X12799300Y-6347700D02*
X12829300Y-6377700D01*
X12829300Y-6347700D02*
X12799300Y-6377700D01*
X12799300Y-6436600D02*
X12829300Y-6466600D01*
X12829300Y-6436600D02*
X12799300Y-6466600D01*
X12812000Y-8029180D02*
X12842000Y-8059180D01*
X12842000Y-8029180D02*
X12812000Y-8059180D01*
X12819620Y-9779240D02*
X12849620Y-9809240D01*
X12849620Y-9779240D02*
X12819620Y-9809240D01*
X12822160Y-7823440D02*
X12852160Y-7853440D01*
X12852160Y-7823440D02*
X12822160Y-7853440D01*
X12824700Y-8113000D02*
X12854700Y-8143000D01*
X12854700Y-8113000D02*
X12824700Y-8143000D01*
X12832320Y-6004800D02*
X12862320Y-6034800D01*
X12862320Y-6004800D02*
X12832320Y-6034800D01*
X12832320Y-6138840D02*
X12862320Y-6168840D01*
X12862320Y-6138840D02*
X12832320Y-6168840D01*
X12839940Y-9700500D02*
X12869940Y-9730500D01*
X12869940Y-9700500D02*
X12839940Y-9730500D01*
X12847560Y-11310860D02*
X12877560Y-11340860D01*
X12877560Y-11310860D02*
X12847560Y-11340860D01*
X12855180Y-11491200D02*
X12885180Y-11521200D01*
X12885180Y-11491200D02*
X12855180Y-11521200D01*
X12862800Y-7894560D02*
X12892800Y-7924560D01*
X12892800Y-7894560D02*
X12862800Y-7924560D01*
X12862800Y-9501650D02*
X12892800Y-9531650D01*
X12892800Y-9501650D02*
X12862800Y-9531650D01*
X12865340Y-9619220D02*
X12895340Y-9649220D01*
X12895340Y-9619220D02*
X12865340Y-9649220D01*
X12875500Y-6309600D02*
X12905500Y-6339600D01*
X12905500Y-6309600D02*
X12875500Y-6339600D01*
X12875500Y-7754860D02*
X12905500Y-7784860D01*
X12905500Y-7754860D02*
X12875500Y-7784860D01*
X12888200Y-6208000D02*
X12918200Y-6238000D01*
X12918200Y-6208000D02*
X12888200Y-6238000D01*
X12908520Y-7676120D02*
X12938520Y-7706120D01*
X12938520Y-7676120D02*
X12908520Y-7706120D01*
X12936460Y-9570960D02*
X12966460Y-9600960D01*
X12966460Y-9570960D02*
X12936460Y-9600960D01*
X12951700Y-11422620D02*
X12981700Y-11452620D01*
X12981700Y-11422620D02*
X12951700Y-11452620D01*
X12984720Y-9250920D02*
X13014720Y-9280920D01*
X13014720Y-9250920D02*
X12984720Y-9280920D01*
X13015200Y-11796000D02*
X13045200Y-11826000D01*
X13045200Y-11796000D02*
X13015200Y-11826000D01*
X13066000Y-9408400D02*
X13096000Y-9438400D01*
X13096000Y-9408400D02*
X13066000Y-9438400D01*
X13068540Y-11166080D02*
X13098540Y-11196080D01*
X13098540Y-11166080D02*
X13068540Y-11196080D01*
X13101560Y-9294100D02*
X13131560Y-9324100D01*
X13131560Y-9294100D02*
X13101560Y-9324100D01*
X13180300Y-11605500D02*
X13210300Y-11635500D01*
X13210300Y-11605500D02*
X13180300Y-11635500D01*
X13238720Y-6964920D02*
X13268720Y-6994920D01*
X13268720Y-6964920D02*
X13238720Y-6994920D01*
X13243800Y-8651480D02*
X13273800Y-8681480D01*
X13273800Y-8651480D02*
X13243800Y-8681480D01*
X13269200Y-5852400D02*
X13299200Y-5882400D01*
X13299200Y-5852400D02*
X13269200Y-5882400D01*
X13294600Y-7554200D02*
X13324600Y-7584200D01*
X13324600Y-7554200D02*
X13294600Y-7584200D01*
X13347940Y-11775680D02*
X13377940Y-11805680D01*
X13377940Y-11775680D02*
X13347940Y-11805680D01*
X13358100Y-11948400D02*
X13388100Y-11978400D01*
X13388100Y-11948400D02*
X13358100Y-11978400D01*
X13421600Y-10170400D02*
X13451600Y-10200400D01*
X13451600Y-10170400D02*
X13421600Y-10200400D01*
X13431760Y-12022060D02*
X13461760Y-12052060D01*
X13461760Y-12022060D02*
X13431760Y-12052060D01*
X13444460Y-11864580D02*
X13474460Y-11894580D01*
X13474460Y-11864580D02*
X13444460Y-11894580D01*
X13447000Y-11392140D02*
X13477000Y-11422140D01*
X13477000Y-11392140D02*
X13447000Y-11422140D01*
X13467320Y-11547080D02*
X13497320Y-11577080D01*
X13497320Y-11547080D02*
X13467320Y-11577080D01*
X13490180Y-11097500D02*
X13520180Y-11127500D01*
X13520180Y-11097500D02*
X13490180Y-11127500D01*
X13490180Y-11232120D02*
X13520180Y-11262120D01*
X13520180Y-11232120D02*
X13490180Y-11262120D01*
X13497800Y-5441840D02*
X13527800Y-5471840D01*
X13527800Y-5441840D02*
X13497800Y-5471840D01*
X13497800Y-7122400D02*
X13527800Y-7152400D01*
X13527800Y-7122400D02*
X13497800Y-7152400D01*
X13497800Y-8824200D02*
X13527800Y-8854200D01*
X13527800Y-8824200D02*
X13497800Y-8854200D01*
X13523200Y-10272000D02*
X13553200Y-10302000D01*
X13553200Y-10272000D02*
X13523200Y-10302000D01*
X13528280Y-10978120D02*
X13558280Y-11008120D01*
X13558280Y-10978120D02*
X13528280Y-11008120D01*
X13540980Y-11925540D02*
X13570980Y-11955540D01*
X13570980Y-11925540D02*
X13540980Y-11955540D01*
X13546060Y-12047460D02*
X13576060Y-12077460D01*
X13576060Y-12047460D02*
X13546060Y-12077460D01*
X13566380Y-11448020D02*
X13596380Y-11478020D01*
X13596380Y-11448020D02*
X13566380Y-11478020D01*
X13607020Y-11214340D02*
X13637020Y-11244340D01*
X13637020Y-11214340D02*
X13607020Y-11244340D01*
X13609560Y-11331180D02*
X13639560Y-11361180D01*
X13639560Y-11331180D02*
X13609560Y-11361180D01*
X13642580Y-11069560D02*
X13672580Y-11099560D01*
X13672580Y-11069560D02*
X13642580Y-11099560D01*
X13647660Y-10863820D02*
X13677660Y-10893820D01*
X13677660Y-10863820D02*
X13647660Y-10893820D01*
X13657820Y-12085560D02*
X13687820Y-12115560D01*
X13687820Y-12085560D02*
X13657820Y-12115560D01*
X13660360Y-11884900D02*
X13690360Y-11914900D01*
X13690360Y-11884900D02*
X13660360Y-11914900D01*
X13792440Y-11061940D02*
X13822440Y-11091940D01*
X13822440Y-11061940D02*
X13792440Y-11091940D01*
X13802600Y-10866360D02*
X13832600Y-10896360D01*
X13832600Y-10866360D02*
X13802600Y-10896360D01*
X13817840Y-11884900D02*
X13847840Y-11914900D01*
X13847840Y-11884900D02*
X13817840Y-11914900D01*
X13820380Y-12090640D02*
X13850380Y-12120640D01*
X13850380Y-12090640D02*
X13820380Y-12120640D01*
X13952460Y-11067020D02*
X13982460Y-11097020D01*
X13982460Y-11067020D02*
X13952460Y-11097020D01*
X13977860Y-12085560D02*
X14007860Y-12115560D01*
X14007860Y-12085560D02*
X13977860Y-12115560D01*
X14010880Y-11722340D02*
X14040880Y-11752340D01*
X14040880Y-11722340D02*
X14010880Y-11752340D01*
X14031200Y-10830800D02*
X14061200Y-10860800D01*
X14061200Y-10830800D02*
X14031200Y-10860800D01*
X14102320Y-11067020D02*
X14132320Y-11097020D01*
X14132320Y-11067020D02*
X14102320Y-11097020D01*
X14104860Y-10866360D02*
X14134860Y-10896360D01*
X14134860Y-10866360D02*
X14104860Y-10896360D01*
X14130260Y-11877280D02*
X14160260Y-11907280D01*
X14160260Y-11877280D02*
X14130260Y-11907280D01*
X14132800Y-12095720D02*
X14162800Y-12125720D01*
X14162800Y-12095720D02*
X14132800Y-12125720D01*
X14267420Y-10868900D02*
X14297420Y-10898900D01*
X14297420Y-10868900D02*
X14267420Y-10898900D01*
X14269960Y-11067020D02*
X14299960Y-11097020D01*
X14299960Y-11067020D02*
X14269960Y-11097020D01*
X14310600Y-12093180D02*
X14340600Y-12123180D01*
X14340600Y-12093180D02*
X14310600Y-12123180D01*
X14313140Y-11882360D02*
X14343140Y-11912360D01*
X14343140Y-11882360D02*
X14313140Y-11912360D01*
X14394420Y-11031460D02*
X14424420Y-11061460D01*
X14424420Y-11031460D02*
X14394420Y-11061460D01*
X14402040Y-10904460D02*
X14432040Y-10934460D01*
X14432040Y-10904460D02*
X14402040Y-10934460D01*
X14419820Y-12050000D02*
X14449820Y-12080000D01*
X14449820Y-12050000D02*
X14419820Y-12080000D01*
X14422360Y-11928080D02*
X14452360Y-11958080D01*
X14452360Y-11928080D02*
X14422360Y-11958080D01*
X14506180Y-10904460D02*
X14536180Y-10934460D01*
X14536180Y-10904460D02*
X14506180Y-10934460D01*
X14508720Y-11034000D02*
X14538720Y-11064000D01*
X14538720Y-11034000D02*
X14508720Y-11064000D01*
X14513800Y-10399000D02*
X14543800Y-10429000D01*
X14543800Y-10399000D02*
X14513800Y-10429000D01*
X14526500Y-12050000D02*
X14556500Y-12080000D01*
X14556500Y-12050000D02*
X14526500Y-12080000D01*
X14531580Y-11930620D02*
X14561580Y-11960620D01*
X14561580Y-11930620D02*
X14531580Y-11960620D01*
X14539200Y-11516600D02*
X14569200Y-11546600D01*
X14569200Y-11516600D02*
X14539200Y-11546600D01*
X14612860Y-8900400D02*
X14642860Y-8930400D01*
X14642860Y-8900400D02*
X14612860Y-8930400D01*
X14747480Y-9438880D02*
X14777480Y-9468880D01*
X14777480Y-9438880D02*
X14747480Y-9468880D01*
X14854160Y-8521940D02*
X14884160Y-8551940D01*
X14884160Y-8521940D02*
X14854160Y-8551940D01*
X14854160Y-9507460D02*
X14884160Y-9537460D01*
X14884160Y-9507460D02*
X14854160Y-9537460D01*
X14856700Y-9903700D02*
X14886700Y-9933700D01*
X14886700Y-9903700D02*
X14856700Y-9933700D01*
X14910040Y-8585440D02*
X14940040Y-8615440D01*
X14940040Y-8585440D02*
X14910040Y-8615440D01*
X14945600Y-9916400D02*
X14975600Y-9946400D01*
X14975600Y-9916400D02*
X14945600Y-9946400D01*
X15402800Y-8417800D02*
X15432800Y-8447800D01*
X15432800Y-8417800D02*
X15402800Y-8447800D01*
X13434800Y-10439400D02*
G75*
G03*
X13434800Y-10439400I-50000J0D01*
G01*
X13688800Y-10439400D02*
G75*
G03*
X13688800Y-10439400I-50000J0D01*
G01*
X13942800Y-10439400D02*
G75*
G03*
X13942800Y-10439400I-50000J0D01*
G01*
X14196800Y-10439400D02*
G75*
G03*
X14196800Y-10439400I-50000J0D01*
G01*
D12*
X14986000Y-6395399D02*
X14986000Y-6505401D01*
X14930999Y-6450400D02*
X15041001Y-6450400D01*
X14986000Y-6624399D02*
X14986000Y-6734401D01*
X14930999Y-6679400D02*
X15041001Y-6679400D01*
X14986000Y-6853399D02*
X14986000Y-6963401D01*
X14930999Y-6908400D02*
X15041001Y-6908400D01*
X14986000Y-7082399D02*
X14986000Y-7192401D01*
X14930999Y-7137400D02*
X15041001Y-7137400D01*
X14986000Y-7311399D02*
X14986000Y-7421401D01*
X14930999Y-7366400D02*
X15041001Y-7366400D01*
X15184000Y-6280399D02*
X15184000Y-6390401D01*
X15128999Y-6335400D02*
X15239001Y-6335400D01*
X15184000Y-6509399D02*
X15184000Y-6619401D01*
X15128999Y-6564400D02*
X15239001Y-6564400D01*
X15184000Y-6738399D02*
X15184000Y-6848401D01*
X15128999Y-6793400D02*
X15239001Y-6793400D01*
X15184000Y-6967399D02*
X15184000Y-7077401D01*
X15128999Y-7022400D02*
X15239001Y-7022400D01*
X15184000Y-7196399D02*
X15184000Y-7306401D01*
X15128999Y-7251400D02*
X15239001Y-7251400D01*
X15382000Y-6395399D02*
X15382000Y-6505401D01*
X15326999Y-6450400D02*
X15437001Y-6450400D01*
X15382000Y-6624399D02*
X15382000Y-6734401D01*
X15326999Y-6679400D02*
X15437001Y-6679400D01*
X15382000Y-6853399D02*
X15382000Y-6963401D01*
X15326999Y-6908400D02*
X15437001Y-6908400D01*
X15382000Y-7082399D02*
X15382000Y-7192401D01*
X15326999Y-7137400D02*
X15437001Y-7137400D01*
X15382000Y-7311399D02*
X15382000Y-7421401D01*
X15326999Y-7366400D02*
X15437001Y-7366400D01*
D13*
X15304209Y-5778609D02*
X15304209Y-5538191D01*
X15063791Y-5538191D01*
X15063791Y-5778609D01*
X15304209Y-5778609D01*
X15304209Y-8278609D02*
X15304209Y-8038191D01*
X15063791Y-8038191D01*
X15063791Y-8278609D01*
X15304209Y-8278609D01*
D11*
X10606277Y-12546584D02*
X10606277Y-12346584D01*
X10606277Y-12346584D02*
X10653896Y-12346584D01*
X10653896Y-12346584D02*
X10682467Y-12356108D01*
X10682467Y-12356108D02*
X10701515Y-12375155D01*
X10701515Y-12375155D02*
X10711039Y-12394203D01*
X10711039Y-12394203D02*
X10720563Y-12432298D01*
X10720563Y-12432298D02*
X10720563Y-12460869D01*
X10720563Y-12460869D02*
X10711039Y-12498965D01*
X10711039Y-12498965D02*
X10701515Y-12518012D01*
X10701515Y-12518012D02*
X10682467Y-12537060D01*
X10682467Y-12537060D02*
X10653896Y-12546584D01*
X10653896Y-12546584D02*
X10606277Y-12546584D01*
X10806277Y-12546584D02*
X10806277Y-12413250D01*
X10806277Y-12451346D02*
X10815801Y-12432298D01*
X10815801Y-12432298D02*
X10825324Y-12422774D01*
X10825324Y-12422774D02*
X10844372Y-12413250D01*
X10844372Y-12413250D02*
X10863420Y-12413250D01*
X10930086Y-12546584D02*
X10930086Y-12413250D01*
X10930086Y-12346584D02*
X10920563Y-12356108D01*
X10920563Y-12356108D02*
X10930086Y-12365631D01*
X10930086Y-12365631D02*
X10939610Y-12356108D01*
X10939610Y-12356108D02*
X10930086Y-12346584D01*
X10930086Y-12346584D02*
X10930086Y-12365631D01*
X11053896Y-12546584D02*
X11034848Y-12537060D01*
X11034848Y-12537060D02*
X11025324Y-12518012D01*
X11025324Y-12518012D02*
X11025324Y-12346584D01*
X11158658Y-12546584D02*
X11139610Y-12537060D01*
X11139610Y-12537060D02*
X11130086Y-12518012D01*
X11130086Y-12518012D02*
X11130086Y-12346584D01*
X11387229Y-12546584D02*
X11387229Y-12346584D01*
X11387229Y-12346584D02*
X11453896Y-12489441D01*
X11453896Y-12489441D02*
X11520562Y-12346584D01*
X11520562Y-12346584D02*
X11520562Y-12546584D01*
X11701515Y-12546584D02*
X11701515Y-12441822D01*
X11701515Y-12441822D02*
X11691991Y-12422774D01*
X11691991Y-12422774D02*
X11672943Y-12413250D01*
X11672943Y-12413250D02*
X11634848Y-12413250D01*
X11634848Y-12413250D02*
X11615801Y-12422774D01*
X11701515Y-12537060D02*
X11682467Y-12546584D01*
X11682467Y-12546584D02*
X11634848Y-12546584D01*
X11634848Y-12546584D02*
X11615801Y-12537060D01*
X11615801Y-12537060D02*
X11606277Y-12518012D01*
X11606277Y-12518012D02*
X11606277Y-12498965D01*
X11606277Y-12498965D02*
X11615801Y-12479917D01*
X11615801Y-12479917D02*
X11634848Y-12470393D01*
X11634848Y-12470393D02*
X11682467Y-12470393D01*
X11682467Y-12470393D02*
X11701515Y-12460869D01*
X11796753Y-12413250D02*
X11796753Y-12613250D01*
X11796753Y-12422774D02*
X11815801Y-12413250D01*
X11815801Y-12413250D02*
X11853896Y-12413250D01*
X11853896Y-12413250D02*
X11872943Y-12422774D01*
X11872943Y-12422774D02*
X11882467Y-12432298D01*
X11882467Y-12432298D02*
X11891991Y-12451346D01*
X11891991Y-12451346D02*
X11891991Y-12508488D01*
X11891991Y-12508488D02*
X11882467Y-12527536D01*
X11882467Y-12527536D02*
X11872943Y-12537060D01*
X11872943Y-12537060D02*
X11853896Y-12546584D01*
X11853896Y-12546584D02*
X11815801Y-12546584D01*
X11815801Y-12546584D02*
X11796753Y-12537060D01*
X11977705Y-12527536D02*
X11987229Y-12537060D01*
X11987229Y-12537060D02*
X11977705Y-12546584D01*
X11977705Y-12546584D02*
X11968182Y-12537060D01*
X11968182Y-12537060D02*
X11977705Y-12527536D01*
X11977705Y-12527536D02*
X11977705Y-12546584D01*
X11977705Y-12422774D02*
X11987229Y-12432298D01*
X11987229Y-12432298D02*
X11977705Y-12441822D01*
X11977705Y-12441822D02*
X11968182Y-12432298D01*
X11968182Y-12432298D02*
X11977705Y-12422774D01*
X11977705Y-12422774D02*
X11977705Y-12441822D01*
D10*
X10315500Y-12860100D02*
X10345500Y-12890100D01*
X10345500Y-12860100D02*
X10315500Y-12890100D01*
D11*
X10644372Y-12766584D02*
X10663420Y-12766584D01*
X10663420Y-12766584D02*
X10682467Y-12776108D01*
X10682467Y-12776108D02*
X10691991Y-12785631D01*
X10691991Y-12785631D02*
X10701515Y-12804679D01*
X10701515Y-12804679D02*
X10711039Y-12842774D01*
X10711039Y-12842774D02*
X10711039Y-12890393D01*
X10711039Y-12890393D02*
X10701515Y-12928488D01*
X10701515Y-12928488D02*
X10691991Y-12947536D01*
X10691991Y-12947536D02*
X10682467Y-12957060D01*
X10682467Y-12957060D02*
X10663420Y-12966584D01*
X10663420Y-12966584D02*
X10644372Y-12966584D01*
X10644372Y-12966584D02*
X10625324Y-12957060D01*
X10625324Y-12957060D02*
X10615801Y-12947536D01*
X10615801Y-12947536D02*
X10606277Y-12928488D01*
X10606277Y-12928488D02*
X10596753Y-12890393D01*
X10596753Y-12890393D02*
X10596753Y-12842774D01*
X10596753Y-12842774D02*
X10606277Y-12804679D01*
X10606277Y-12804679D02*
X10615801Y-12785631D01*
X10615801Y-12785631D02*
X10625324Y-12776108D01*
X10625324Y-12776108D02*
X10644372Y-12766584D01*
X10796753Y-12947536D02*
X10806277Y-12957060D01*
X10806277Y-12957060D02*
X10796753Y-12966584D01*
X10796753Y-12966584D02*
X10787229Y-12957060D01*
X10787229Y-12957060D02*
X10796753Y-12947536D01*
X10796753Y-12947536D02*
X10796753Y-12966584D01*
X10872944Y-12766584D02*
X10996753Y-12766584D01*
X10996753Y-12766584D02*
X10930086Y-12842774D01*
X10930086Y-12842774D02*
X10958658Y-12842774D01*
X10958658Y-12842774D02*
X10977705Y-12852298D01*
X10977705Y-12852298D02*
X10987229Y-12861822D01*
X10987229Y-12861822D02*
X10996753Y-12880869D01*
X10996753Y-12880869D02*
X10996753Y-12928488D01*
X10996753Y-12928488D02*
X10987229Y-12947536D01*
X10987229Y-12947536D02*
X10977705Y-12957060D01*
X10977705Y-12957060D02*
X10958658Y-12966584D01*
X10958658Y-12966584D02*
X10901515Y-12966584D01*
X10901515Y-12966584D02*
X10882467Y-12957060D01*
X10882467Y-12957060D02*
X10872944Y-12947536D01*
X11120563Y-12766584D02*
X11139610Y-12766584D01*
X11139610Y-12766584D02*
X11158658Y-12776108D01*
X11158658Y-12776108D02*
X11168182Y-12785631D01*
X11168182Y-12785631D02*
X11177705Y-12804679D01*
X11177705Y-12804679D02*
X11187229Y-12842774D01*
X11187229Y-12842774D02*
X11187229Y-12890393D01*
X11187229Y-12890393D02*
X11177705Y-12928488D01*
X11177705Y-12928488D02*
X11168182Y-12947536D01*
X11168182Y-12947536D02*
X11158658Y-12957060D01*
X11158658Y-12957060D02*
X11139610Y-12966584D01*
X11139610Y-12966584D02*
X11120563Y-12966584D01*
X11120563Y-12966584D02*
X11101515Y-12957060D01*
X11101515Y-12957060D02*
X11091991Y-12947536D01*
X11091991Y-12947536D02*
X11082467Y-12928488D01*
X11082467Y-12928488D02*
X11072944Y-12890393D01*
X11072944Y-12890393D02*
X11072944Y-12842774D01*
X11072944Y-12842774D02*
X11082467Y-12804679D01*
X11082467Y-12804679D02*
X11091991Y-12785631D01*
X11091991Y-12785631D02*
X11101515Y-12776108D01*
X11101515Y-12776108D02*
X11120563Y-12766584D01*
X11311039Y-12766584D02*
X11330086Y-12766584D01*
X11330086Y-12766584D02*
X11349134Y-12776108D01*
X11349134Y-12776108D02*
X11358658Y-12785631D01*
X11358658Y-12785631D02*
X11368182Y-12804679D01*
X11368182Y-12804679D02*
X11377705Y-12842774D01*
X11377705Y-12842774D02*
X11377705Y-12890393D01*
X11377705Y-12890393D02*
X11368182Y-12928488D01*
X11368182Y-12928488D02*
X11358658Y-12947536D01*
X11358658Y-12947536D02*
X11349134Y-12957060D01*
X11349134Y-12957060D02*
X11330086Y-12966584D01*
X11330086Y-12966584D02*
X11311039Y-12966584D01*
X11311039Y-12966584D02*
X11291991Y-12957060D01*
X11291991Y-12957060D02*
X11282467Y-12947536D01*
X11282467Y-12947536D02*
X11272943Y-12928488D01*
X11272943Y-12928488D02*
X11263420Y-12890393D01*
X11263420Y-12890393D02*
X11263420Y-12842774D01*
X11263420Y-12842774D02*
X11272943Y-12804679D01*
X11272943Y-12804679D02*
X11282467Y-12785631D01*
X11282467Y-12785631D02*
X11291991Y-12776108D01*
X11291991Y-12776108D02*
X11311039Y-12766584D01*
X11463420Y-12966584D02*
X11463420Y-12833250D01*
X11463420Y-12852298D02*
X11472943Y-12842774D01*
X11472943Y-12842774D02*
X11491991Y-12833250D01*
X11491991Y-12833250D02*
X11520563Y-12833250D01*
X11520563Y-12833250D02*
X11539610Y-12842774D01*
X11539610Y-12842774D02*
X11549134Y-12861822D01*
X11549134Y-12861822D02*
X11549134Y-12966584D01*
X11549134Y-12861822D02*
X11558658Y-12842774D01*
X11558658Y-12842774D02*
X11577705Y-12833250D01*
X11577705Y-12833250D02*
X11606277Y-12833250D01*
X11606277Y-12833250D02*
X11625324Y-12842774D01*
X11625324Y-12842774D02*
X11634848Y-12861822D01*
X11634848Y-12861822D02*
X11634848Y-12966584D01*
X11730086Y-12966584D02*
X11730086Y-12833250D01*
X11730086Y-12852298D02*
X11739610Y-12842774D01*
X11739610Y-12842774D02*
X11758658Y-12833250D01*
X11758658Y-12833250D02*
X11787229Y-12833250D01*
X11787229Y-12833250D02*
X11806277Y-12842774D01*
X11806277Y-12842774D02*
X11815801Y-12861822D01*
X11815801Y-12861822D02*
X11815801Y-12966584D01*
X11815801Y-12861822D02*
X11825324Y-12842774D01*
X11825324Y-12842774D02*
X11844372Y-12833250D01*
X11844372Y-12833250D02*
X11872943Y-12833250D01*
X11872943Y-12833250D02*
X11891991Y-12842774D01*
X11891991Y-12842774D02*
X11901515Y-12861822D01*
X11901515Y-12861822D02*
X11901515Y-12966584D01*
X12291991Y-12757060D02*
X12120563Y-13014203D01*
X12549134Y-12766584D02*
X12568182Y-12766584D01*
X12568182Y-12766584D02*
X12587229Y-12776108D01*
X12587229Y-12776108D02*
X12596753Y-12785631D01*
X12596753Y-12785631D02*
X12606277Y-12804679D01*
X12606277Y-12804679D02*
X12615801Y-12842774D01*
X12615801Y-12842774D02*
X12615801Y-12890393D01*
X12615801Y-12890393D02*
X12606277Y-12928488D01*
X12606277Y-12928488D02*
X12596753Y-12947536D01*
X12596753Y-12947536D02*
X12587229Y-12957060D01*
X12587229Y-12957060D02*
X12568182Y-12966584D01*
X12568182Y-12966584D02*
X12549134Y-12966584D01*
X12549134Y-12966584D02*
X12530086Y-12957060D01*
X12530086Y-12957060D02*
X12520563Y-12947536D01*
X12520563Y-12947536D02*
X12511039Y-12928488D01*
X12511039Y-12928488D02*
X12501515Y-12890393D01*
X12501515Y-12890393D02*
X12501515Y-12842774D01*
X12501515Y-12842774D02*
X12511039Y-12804679D01*
X12511039Y-12804679D02*
X12520563Y-12785631D01*
X12520563Y-12785631D02*
X12530086Y-12776108D01*
X12530086Y-12776108D02*
X12549134Y-12766584D01*
X12701515Y-12947536D02*
X12711039Y-12957060D01*
X12711039Y-12957060D02*
X12701515Y-12966584D01*
X12701515Y-12966584D02*
X12691991Y-12957060D01*
X12691991Y-12957060D02*
X12701515Y-12947536D01*
X12701515Y-12947536D02*
X12701515Y-12966584D01*
X12834848Y-12766584D02*
X12853896Y-12766584D01*
X12853896Y-12766584D02*
X12872944Y-12776108D01*
X12872944Y-12776108D02*
X12882467Y-12785631D01*
X12882467Y-12785631D02*
X12891991Y-12804679D01*
X12891991Y-12804679D02*
X12901515Y-12842774D01*
X12901515Y-12842774D02*
X12901515Y-12890393D01*
X12901515Y-12890393D02*
X12891991Y-12928488D01*
X12891991Y-12928488D02*
X12882467Y-12947536D01*
X12882467Y-12947536D02*
X12872944Y-12957060D01*
X12872944Y-12957060D02*
X12853896Y-12966584D01*
X12853896Y-12966584D02*
X12834848Y-12966584D01*
X12834848Y-12966584D02*
X12815801Y-12957060D01*
X12815801Y-12957060D02*
X12806277Y-12947536D01*
X12806277Y-12947536D02*
X12796753Y-12928488D01*
X12796753Y-12928488D02*
X12787229Y-12890393D01*
X12787229Y-12890393D02*
X12787229Y-12842774D01*
X12787229Y-12842774D02*
X12796753Y-12804679D01*
X12796753Y-12804679D02*
X12806277Y-12785631D01*
X12806277Y-12785631D02*
X12815801Y-12776108D01*
X12815801Y-12776108D02*
X12834848Y-12766584D01*
X13091991Y-12966584D02*
X12977706Y-12966584D01*
X13034848Y-12966584D02*
X13034848Y-12766584D01*
X13034848Y-12766584D02*
X13015801Y-12795155D01*
X13015801Y-12795155D02*
X12996753Y-12814203D01*
X12996753Y-12814203D02*
X12977706Y-12823727D01*
X13282467Y-12966584D02*
X13168182Y-12966584D01*
X13225325Y-12966584D02*
X13225325Y-12766584D01*
X13225325Y-12766584D02*
X13206277Y-12795155D01*
X13206277Y-12795155D02*
X13187229Y-12814203D01*
X13187229Y-12814203D02*
X13168182Y-12823727D01*
X13396753Y-12852298D02*
X13377706Y-12842774D01*
X13377706Y-12842774D02*
X13368182Y-12833250D01*
X13368182Y-12833250D02*
X13358658Y-12814203D01*
X13358658Y-12814203D02*
X13358658Y-12804679D01*
X13358658Y-12804679D02*
X13368182Y-12785631D01*
X13368182Y-12785631D02*
X13377706Y-12776108D01*
X13377706Y-12776108D02*
X13396753Y-12766584D01*
X13396753Y-12766584D02*
X13434848Y-12766584D01*
X13434848Y-12766584D02*
X13453896Y-12776108D01*
X13453896Y-12776108D02*
X13463420Y-12785631D01*
X13463420Y-12785631D02*
X13472944Y-12804679D01*
X13472944Y-12804679D02*
X13472944Y-12814203D01*
X13472944Y-12814203D02*
X13463420Y-12833250D01*
X13463420Y-12833250D02*
X13453896Y-12842774D01*
X13453896Y-12842774D02*
X13434848Y-12852298D01*
X13434848Y-12852298D02*
X13396753Y-12852298D01*
X13396753Y-12852298D02*
X13377706Y-12861822D01*
X13377706Y-12861822D02*
X13368182Y-12871346D01*
X13368182Y-12871346D02*
X13358658Y-12890393D01*
X13358658Y-12890393D02*
X13358658Y-12928488D01*
X13358658Y-12928488D02*
X13368182Y-12947536D01*
X13368182Y-12947536D02*
X13377706Y-12957060D01*
X13377706Y-12957060D02*
X13396753Y-12966584D01*
X13396753Y-12966584D02*
X13434848Y-12966584D01*
X13434848Y-12966584D02*
X13453896Y-12957060D01*
X13453896Y-12957060D02*
X13463420Y-12947536D01*
X13463420Y-12947536D02*
X13472944Y-12928488D01*
X13472944Y-12928488D02*
X13472944Y-12890393D01*
X13472944Y-12890393D02*
X13463420Y-12871346D01*
X13463420Y-12871346D02*
X13453896Y-12861822D01*
X13453896Y-12861822D02*
X13434848Y-12852298D01*
X13549134Y-12766584D02*
X13549134Y-12804679D01*
X13625325Y-12766584D02*
X13625325Y-12804679D01*
X13920563Y-13042774D02*
X13911039Y-13033250D01*
X13911039Y-13033250D02*
X13891991Y-13004679D01*
X13891991Y-13004679D02*
X13882468Y-12985631D01*
X13882468Y-12985631D02*
X13872944Y-12957060D01*
X13872944Y-12957060D02*
X13863420Y-12909441D01*
X13863420Y-12909441D02*
X13863420Y-12871346D01*
X13863420Y-12871346D02*
X13872944Y-12823727D01*
X13872944Y-12823727D02*
X13882468Y-12795155D01*
X13882468Y-12795155D02*
X13891991Y-12776108D01*
X13891991Y-12776108D02*
X13911039Y-12747536D01*
X13911039Y-12747536D02*
X13920563Y-12738012D01*
X14101515Y-12966584D02*
X13987229Y-12966584D01*
X14044372Y-12966584D02*
X14044372Y-12766584D01*
X14044372Y-12766584D02*
X14025325Y-12795155D01*
X14025325Y-12795155D02*
X14006277Y-12814203D01*
X14006277Y-12814203D02*
X13987229Y-12823727D01*
X14168182Y-12766584D02*
X14301515Y-12766584D01*
X14301515Y-12766584D02*
X14215801Y-12966584D01*
X14482468Y-12966584D02*
X14368182Y-12966584D01*
X14425325Y-12966584D02*
X14425325Y-12766584D01*
X14425325Y-12766584D02*
X14406277Y-12795155D01*
X14406277Y-12795155D02*
X14387229Y-12814203D01*
X14387229Y-12814203D02*
X14368182Y-12823727D01*
X14720563Y-12966584D02*
X14720563Y-12766584D01*
X14806277Y-12966584D02*
X14806277Y-12861822D01*
X14806277Y-12861822D02*
X14796753Y-12842774D01*
X14796753Y-12842774D02*
X14777706Y-12833250D01*
X14777706Y-12833250D02*
X14749134Y-12833250D01*
X14749134Y-12833250D02*
X14730087Y-12842774D01*
X14730087Y-12842774D02*
X14720563Y-12852298D01*
X14930087Y-12966584D02*
X14911039Y-12957060D01*
X14911039Y-12957060D02*
X14901515Y-12947536D01*
X14901515Y-12947536D02*
X14891991Y-12928488D01*
X14891991Y-12928488D02*
X14891991Y-12871346D01*
X14891991Y-12871346D02*
X14901515Y-12852298D01*
X14901515Y-12852298D02*
X14911039Y-12842774D01*
X14911039Y-12842774D02*
X14930087Y-12833250D01*
X14930087Y-12833250D02*
X14958658Y-12833250D01*
X14958658Y-12833250D02*
X14977706Y-12842774D01*
X14977706Y-12842774D02*
X14987230Y-12852298D01*
X14987230Y-12852298D02*
X14996753Y-12871346D01*
X14996753Y-12871346D02*
X14996753Y-12928488D01*
X14996753Y-12928488D02*
X14987230Y-12947536D01*
X14987230Y-12947536D02*
X14977706Y-12957060D01*
X14977706Y-12957060D02*
X14958658Y-12966584D01*
X14958658Y-12966584D02*
X14930087Y-12966584D01*
X15111039Y-12966584D02*
X15091991Y-12957060D01*
X15091991Y-12957060D02*
X15082468Y-12938012D01*
X15082468Y-12938012D02*
X15082468Y-12766584D01*
X15263420Y-12957060D02*
X15244372Y-12966584D01*
X15244372Y-12966584D02*
X15206277Y-12966584D01*
X15206277Y-12966584D02*
X15187230Y-12957060D01*
X15187230Y-12957060D02*
X15177706Y-12938012D01*
X15177706Y-12938012D02*
X15177706Y-12861822D01*
X15177706Y-12861822D02*
X15187230Y-12842774D01*
X15187230Y-12842774D02*
X15206277Y-12833250D01*
X15206277Y-12833250D02*
X15244372Y-12833250D01*
X15244372Y-12833250D02*
X15263420Y-12842774D01*
X15263420Y-12842774D02*
X15272944Y-12861822D01*
X15272944Y-12861822D02*
X15272944Y-12880869D01*
X15272944Y-12880869D02*
X15177706Y-12899917D01*
X15349134Y-12957060D02*
X15368182Y-12966584D01*
X15368182Y-12966584D02*
X15406277Y-12966584D01*
X15406277Y-12966584D02*
X15425325Y-12957060D01*
X15425325Y-12957060D02*
X15434849Y-12938012D01*
X15434849Y-12938012D02*
X15434849Y-12928488D01*
X15434849Y-12928488D02*
X15425325Y-12909441D01*
X15425325Y-12909441D02*
X15406277Y-12899917D01*
X15406277Y-12899917D02*
X15377706Y-12899917D01*
X15377706Y-12899917D02*
X15358658Y-12890393D01*
X15358658Y-12890393D02*
X15349134Y-12871346D01*
X15349134Y-12871346D02*
X15349134Y-12861822D01*
X15349134Y-12861822D02*
X15358658Y-12842774D01*
X15358658Y-12842774D02*
X15377706Y-12833250D01*
X15377706Y-12833250D02*
X15406277Y-12833250D01*
X15406277Y-12833250D02*
X15425325Y-12842774D01*
X15501515Y-13042774D02*
X15511039Y-13033250D01*
X15511039Y-13033250D02*
X15530087Y-13004679D01*
X15530087Y-13004679D02*
X15539611Y-12985631D01*
X15539611Y-12985631D02*
X15549134Y-12957060D01*
X15549134Y-12957060D02*
X15558658Y-12909441D01*
X15558658Y-12909441D02*
X15558658Y-12871346D01*
X15558658Y-12871346D02*
X15549134Y-12823727D01*
X15549134Y-12823727D02*
X15539611Y-12795155D01*
X15539611Y-12795155D02*
X15530087Y-12776108D01*
X15530087Y-12776108D02*
X15511039Y-12747536D01*
X15511039Y-12747536D02*
X15501515Y-12738012D01*
D10*
X10345500Y-13139100D02*
G75*
G03*
X10345500Y-13139100I-50000J0D01*
G01*
D11*
X10711039Y-13230584D02*
X10596753Y-13230584D01*
X10653896Y-13230584D02*
X10653896Y-13030584D01*
X10653896Y-13030584D02*
X10634848Y-13059155D01*
X10634848Y-13059155D02*
X10615801Y-13078203D01*
X10615801Y-13078203D02*
X10596753Y-13087727D01*
X10796753Y-13211536D02*
X10806277Y-13221060D01*
X10806277Y-13221060D02*
X10796753Y-13230584D01*
X10796753Y-13230584D02*
X10787229Y-13221060D01*
X10787229Y-13221060D02*
X10796753Y-13211536D01*
X10796753Y-13211536D02*
X10796753Y-13230584D01*
X10930086Y-13030584D02*
X10949134Y-13030584D01*
X10949134Y-13030584D02*
X10968182Y-13040108D01*
X10968182Y-13040108D02*
X10977705Y-13049631D01*
X10977705Y-13049631D02*
X10987229Y-13068679D01*
X10987229Y-13068679D02*
X10996753Y-13106774D01*
X10996753Y-13106774D02*
X10996753Y-13154393D01*
X10996753Y-13154393D02*
X10987229Y-13192488D01*
X10987229Y-13192488D02*
X10977705Y-13211536D01*
X10977705Y-13211536D02*
X10968182Y-13221060D01*
X10968182Y-13221060D02*
X10949134Y-13230584D01*
X10949134Y-13230584D02*
X10930086Y-13230584D01*
X10930086Y-13230584D02*
X10911039Y-13221060D01*
X10911039Y-13221060D02*
X10901515Y-13211536D01*
X10901515Y-13211536D02*
X10891991Y-13192488D01*
X10891991Y-13192488D02*
X10882467Y-13154393D01*
X10882467Y-13154393D02*
X10882467Y-13106774D01*
X10882467Y-13106774D02*
X10891991Y-13068679D01*
X10891991Y-13068679D02*
X10901515Y-13049631D01*
X10901515Y-13049631D02*
X10911039Y-13040108D01*
X10911039Y-13040108D02*
X10930086Y-13030584D01*
X11120563Y-13030584D02*
X11139610Y-13030584D01*
X11139610Y-13030584D02*
X11158658Y-13040108D01*
X11158658Y-13040108D02*
X11168182Y-13049631D01*
X11168182Y-13049631D02*
X11177705Y-13068679D01*
X11177705Y-13068679D02*
X11187229Y-13106774D01*
X11187229Y-13106774D02*
X11187229Y-13154393D01*
X11187229Y-13154393D02*
X11177705Y-13192488D01*
X11177705Y-13192488D02*
X11168182Y-13211536D01*
X11168182Y-13211536D02*
X11158658Y-13221060D01*
X11158658Y-13221060D02*
X11139610Y-13230584D01*
X11139610Y-13230584D02*
X11120563Y-13230584D01*
X11120563Y-13230584D02*
X11101515Y-13221060D01*
X11101515Y-13221060D02*
X11091991Y-13211536D01*
X11091991Y-13211536D02*
X11082467Y-13192488D01*
X11082467Y-13192488D02*
X11072944Y-13154393D01*
X11072944Y-13154393D02*
X11072944Y-13106774D01*
X11072944Y-13106774D02*
X11082467Y-13068679D01*
X11082467Y-13068679D02*
X11091991Y-13049631D01*
X11091991Y-13049631D02*
X11101515Y-13040108D01*
X11101515Y-13040108D02*
X11120563Y-13030584D01*
X11311039Y-13030584D02*
X11330086Y-13030584D01*
X11330086Y-13030584D02*
X11349134Y-13040108D01*
X11349134Y-13040108D02*
X11358658Y-13049631D01*
X11358658Y-13049631D02*
X11368182Y-13068679D01*
X11368182Y-13068679D02*
X11377705Y-13106774D01*
X11377705Y-13106774D02*
X11377705Y-13154393D01*
X11377705Y-13154393D02*
X11368182Y-13192488D01*
X11368182Y-13192488D02*
X11358658Y-13211536D01*
X11358658Y-13211536D02*
X11349134Y-13221060D01*
X11349134Y-13221060D02*
X11330086Y-13230584D01*
X11330086Y-13230584D02*
X11311039Y-13230584D01*
X11311039Y-13230584D02*
X11291991Y-13221060D01*
X11291991Y-13221060D02*
X11282467Y-13211536D01*
X11282467Y-13211536D02*
X11272943Y-13192488D01*
X11272943Y-13192488D02*
X11263420Y-13154393D01*
X11263420Y-13154393D02*
X11263420Y-13106774D01*
X11263420Y-13106774D02*
X11272943Y-13068679D01*
X11272943Y-13068679D02*
X11282467Y-13049631D01*
X11282467Y-13049631D02*
X11291991Y-13040108D01*
X11291991Y-13040108D02*
X11311039Y-13030584D01*
X11463420Y-13230584D02*
X11463420Y-13097250D01*
X11463420Y-13116298D02*
X11472943Y-13106774D01*
X11472943Y-13106774D02*
X11491991Y-13097250D01*
X11491991Y-13097250D02*
X11520563Y-13097250D01*
X11520563Y-13097250D02*
X11539610Y-13106774D01*
X11539610Y-13106774D02*
X11549134Y-13125822D01*
X11549134Y-13125822D02*
X11549134Y-13230584D01*
X11549134Y-13125822D02*
X11558658Y-13106774D01*
X11558658Y-13106774D02*
X11577705Y-13097250D01*
X11577705Y-13097250D02*
X11606277Y-13097250D01*
X11606277Y-13097250D02*
X11625324Y-13106774D01*
X11625324Y-13106774D02*
X11634848Y-13125822D01*
X11634848Y-13125822D02*
X11634848Y-13230584D01*
X11730086Y-13230584D02*
X11730086Y-13097250D01*
X11730086Y-13116298D02*
X11739610Y-13106774D01*
X11739610Y-13106774D02*
X11758658Y-13097250D01*
X11758658Y-13097250D02*
X11787229Y-13097250D01*
X11787229Y-13097250D02*
X11806277Y-13106774D01*
X11806277Y-13106774D02*
X11815801Y-13125822D01*
X11815801Y-13125822D02*
X11815801Y-13230584D01*
X11815801Y-13125822D02*
X11825324Y-13106774D01*
X11825324Y-13106774D02*
X11844372Y-13097250D01*
X11844372Y-13097250D02*
X11872943Y-13097250D01*
X11872943Y-13097250D02*
X11891991Y-13106774D01*
X11891991Y-13106774D02*
X11901515Y-13125822D01*
X11901515Y-13125822D02*
X11901515Y-13230584D01*
X12291991Y-13021060D02*
X12120563Y-13278203D01*
X12549134Y-13030584D02*
X12568182Y-13030584D01*
X12568182Y-13030584D02*
X12587229Y-13040108D01*
X12587229Y-13040108D02*
X12596753Y-13049631D01*
X12596753Y-13049631D02*
X12606277Y-13068679D01*
X12606277Y-13068679D02*
X12615801Y-13106774D01*
X12615801Y-13106774D02*
X12615801Y-13154393D01*
X12615801Y-13154393D02*
X12606277Y-13192488D01*
X12606277Y-13192488D02*
X12596753Y-13211536D01*
X12596753Y-13211536D02*
X12587229Y-13221060D01*
X12587229Y-13221060D02*
X12568182Y-13230584D01*
X12568182Y-13230584D02*
X12549134Y-13230584D01*
X12549134Y-13230584D02*
X12530086Y-13221060D01*
X12530086Y-13221060D02*
X12520563Y-13211536D01*
X12520563Y-13211536D02*
X12511039Y-13192488D01*
X12511039Y-13192488D02*
X12501515Y-13154393D01*
X12501515Y-13154393D02*
X12501515Y-13106774D01*
X12501515Y-13106774D02*
X12511039Y-13068679D01*
X12511039Y-13068679D02*
X12520563Y-13049631D01*
X12520563Y-13049631D02*
X12530086Y-13040108D01*
X12530086Y-13040108D02*
X12549134Y-13030584D01*
X12701515Y-13211536D02*
X12711039Y-13221060D01*
X12711039Y-13221060D02*
X12701515Y-13230584D01*
X12701515Y-13230584D02*
X12691991Y-13221060D01*
X12691991Y-13221060D02*
X12701515Y-13211536D01*
X12701515Y-13211536D02*
X12701515Y-13230584D01*
X12834848Y-13030584D02*
X12853896Y-13030584D01*
X12853896Y-13030584D02*
X12872944Y-13040108D01*
X12872944Y-13040108D02*
X12882467Y-13049631D01*
X12882467Y-13049631D02*
X12891991Y-13068679D01*
X12891991Y-13068679D02*
X12901515Y-13106774D01*
X12901515Y-13106774D02*
X12901515Y-13154393D01*
X12901515Y-13154393D02*
X12891991Y-13192488D01*
X12891991Y-13192488D02*
X12882467Y-13211536D01*
X12882467Y-13211536D02*
X12872944Y-13221060D01*
X12872944Y-13221060D02*
X12853896Y-13230584D01*
X12853896Y-13230584D02*
X12834848Y-13230584D01*
X12834848Y-13230584D02*
X12815801Y-13221060D01*
X12815801Y-13221060D02*
X12806277Y-13211536D01*
X12806277Y-13211536D02*
X12796753Y-13192488D01*
X12796753Y-13192488D02*
X12787229Y-13154393D01*
X12787229Y-13154393D02*
X12787229Y-13106774D01*
X12787229Y-13106774D02*
X12796753Y-13068679D01*
X12796753Y-13068679D02*
X12806277Y-13049631D01*
X12806277Y-13049631D02*
X12815801Y-13040108D01*
X12815801Y-13040108D02*
X12834848Y-13030584D01*
X12968182Y-13030584D02*
X13091991Y-13030584D01*
X13091991Y-13030584D02*
X13025325Y-13106774D01*
X13025325Y-13106774D02*
X13053896Y-13106774D01*
X13053896Y-13106774D02*
X13072944Y-13116298D01*
X13072944Y-13116298D02*
X13082467Y-13125822D01*
X13082467Y-13125822D02*
X13091991Y-13144869D01*
X13091991Y-13144869D02*
X13091991Y-13192488D01*
X13091991Y-13192488D02*
X13082467Y-13211536D01*
X13082467Y-13211536D02*
X13072944Y-13221060D01*
X13072944Y-13221060D02*
X13053896Y-13230584D01*
X13053896Y-13230584D02*
X12996753Y-13230584D01*
X12996753Y-13230584D02*
X12977706Y-13221060D01*
X12977706Y-13221060D02*
X12968182Y-13211536D01*
X13187229Y-13230584D02*
X13225325Y-13230584D01*
X13225325Y-13230584D02*
X13244372Y-13221060D01*
X13244372Y-13221060D02*
X13253896Y-13211536D01*
X13253896Y-13211536D02*
X13272944Y-13182965D01*
X13272944Y-13182965D02*
X13282467Y-13144869D01*
X13282467Y-13144869D02*
X13282467Y-13068679D01*
X13282467Y-13068679D02*
X13272944Y-13049631D01*
X13272944Y-13049631D02*
X13263420Y-13040108D01*
X13263420Y-13040108D02*
X13244372Y-13030584D01*
X13244372Y-13030584D02*
X13206277Y-13030584D01*
X13206277Y-13030584D02*
X13187229Y-13040108D01*
X13187229Y-13040108D02*
X13177706Y-13049631D01*
X13177706Y-13049631D02*
X13168182Y-13068679D01*
X13168182Y-13068679D02*
X13168182Y-13116298D01*
X13168182Y-13116298D02*
X13177706Y-13135346D01*
X13177706Y-13135346D02*
X13187229Y-13144869D01*
X13187229Y-13144869D02*
X13206277Y-13154393D01*
X13206277Y-13154393D02*
X13244372Y-13154393D01*
X13244372Y-13154393D02*
X13263420Y-13144869D01*
X13263420Y-13144869D02*
X13272944Y-13135346D01*
X13272944Y-13135346D02*
X13282467Y-13116298D01*
X13453896Y-13097250D02*
X13453896Y-13230584D01*
X13406277Y-13021060D02*
X13358658Y-13163917D01*
X13358658Y-13163917D02*
X13482467Y-13163917D01*
X13549134Y-13030584D02*
X13549134Y-13068679D01*
X13625325Y-13030584D02*
X13625325Y-13068679D01*
X13920563Y-13306774D02*
X13911039Y-13297250D01*
X13911039Y-13297250D02*
X13891991Y-13268679D01*
X13891991Y-13268679D02*
X13882468Y-13249631D01*
X13882468Y-13249631D02*
X13872944Y-13221060D01*
X13872944Y-13221060D02*
X13863420Y-13173441D01*
X13863420Y-13173441D02*
X13863420Y-13135346D01*
X13863420Y-13135346D02*
X13872944Y-13087727D01*
X13872944Y-13087727D02*
X13882468Y-13059155D01*
X13882468Y-13059155D02*
X13891991Y-13040108D01*
X13891991Y-13040108D02*
X13911039Y-13011536D01*
X13911039Y-13011536D02*
X13920563Y-13002012D01*
X14082468Y-13097250D02*
X14082468Y-13230584D01*
X14034848Y-13021060D02*
X13987229Y-13163917D01*
X13987229Y-13163917D02*
X14111039Y-13163917D01*
X14339610Y-13230584D02*
X14339610Y-13030584D01*
X14425325Y-13230584D02*
X14425325Y-13125822D01*
X14425325Y-13125822D02*
X14415801Y-13106774D01*
X14415801Y-13106774D02*
X14396753Y-13097250D01*
X14396753Y-13097250D02*
X14368182Y-13097250D01*
X14368182Y-13097250D02*
X14349134Y-13106774D01*
X14349134Y-13106774D02*
X14339610Y-13116298D01*
X14549134Y-13230584D02*
X14530087Y-13221060D01*
X14530087Y-13221060D02*
X14520563Y-13211536D01*
X14520563Y-13211536D02*
X14511039Y-13192488D01*
X14511039Y-13192488D02*
X14511039Y-13135346D01*
X14511039Y-13135346D02*
X14520563Y-13116298D01*
X14520563Y-13116298D02*
X14530087Y-13106774D01*
X14530087Y-13106774D02*
X14549134Y-13097250D01*
X14549134Y-13097250D02*
X14577706Y-13097250D01*
X14577706Y-13097250D02*
X14596753Y-13106774D01*
X14596753Y-13106774D02*
X14606277Y-13116298D01*
X14606277Y-13116298D02*
X14615801Y-13135346D01*
X14615801Y-13135346D02*
X14615801Y-13192488D01*
X14615801Y-13192488D02*
X14606277Y-13211536D01*
X14606277Y-13211536D02*
X14596753Y-13221060D01*
X14596753Y-13221060D02*
X14577706Y-13230584D01*
X14577706Y-13230584D02*
X14549134Y-13230584D01*
X14730087Y-13230584D02*
X14711039Y-13221060D01*
X14711039Y-13221060D02*
X14701515Y-13202012D01*
X14701515Y-13202012D02*
X14701515Y-13030584D01*
X14882468Y-13221060D02*
X14863420Y-13230584D01*
X14863420Y-13230584D02*
X14825325Y-13230584D01*
X14825325Y-13230584D02*
X14806277Y-13221060D01*
X14806277Y-13221060D02*
X14796753Y-13202012D01*
X14796753Y-13202012D02*
X14796753Y-13125822D01*
X14796753Y-13125822D02*
X14806277Y-13106774D01*
X14806277Y-13106774D02*
X14825325Y-13097250D01*
X14825325Y-13097250D02*
X14863420Y-13097250D01*
X14863420Y-13097250D02*
X14882468Y-13106774D01*
X14882468Y-13106774D02*
X14891991Y-13125822D01*
X14891991Y-13125822D02*
X14891991Y-13144869D01*
X14891991Y-13144869D02*
X14796753Y-13163917D01*
X14968182Y-13221060D02*
X14987230Y-13230584D01*
X14987230Y-13230584D02*
X15025325Y-13230584D01*
X15025325Y-13230584D02*
X15044372Y-13221060D01*
X15044372Y-13221060D02*
X15053896Y-13202012D01*
X15053896Y-13202012D02*
X15053896Y-13192488D01*
X15053896Y-13192488D02*
X15044372Y-13173441D01*
X15044372Y-13173441D02*
X15025325Y-13163917D01*
X15025325Y-13163917D02*
X14996753Y-13163917D01*
X14996753Y-13163917D02*
X14977706Y-13154393D01*
X14977706Y-13154393D02*
X14968182Y-13135346D01*
X14968182Y-13135346D02*
X14968182Y-13125822D01*
X14968182Y-13125822D02*
X14977706Y-13106774D01*
X14977706Y-13106774D02*
X14996753Y-13097250D01*
X14996753Y-13097250D02*
X15025325Y-13097250D01*
X15025325Y-13097250D02*
X15044372Y-13106774D01*
X15120563Y-13306774D02*
X15130087Y-13297250D01*
X15130087Y-13297250D02*
X15149134Y-13268679D01*
X15149134Y-13268679D02*
X15158658Y-13249631D01*
X15158658Y-13249631D02*
X15168182Y-13221060D01*
X15168182Y-13221060D02*
X15177706Y-13173441D01*
X15177706Y-13173441D02*
X15177706Y-13135346D01*
X15177706Y-13135346D02*
X15168182Y-13087727D01*
X15168182Y-13087727D02*
X15158658Y-13059155D01*
X15158658Y-13059155D02*
X15149134Y-13040108D01*
X15149134Y-13040108D02*
X15130087Y-13011536D01*
X15130087Y-13011536D02*
X15120563Y-13002012D01*
D12*
X10290499Y-13348099D02*
X10290499Y-13458101D01*
X10235498Y-13403100D02*
X10345500Y-13403100D01*
D11*
X10711039Y-13494584D02*
X10596753Y-13494584D01*
X10653896Y-13494584D02*
X10653896Y-13294584D01*
X10653896Y-13294584D02*
X10634848Y-13323155D01*
X10634848Y-13323155D02*
X10615801Y-13342203D01*
X10615801Y-13342203D02*
X10596753Y-13351727D01*
X10796753Y-13475536D02*
X10806277Y-13485060D01*
X10806277Y-13485060D02*
X10796753Y-13494584D01*
X10796753Y-13494584D02*
X10787229Y-13485060D01*
X10787229Y-13485060D02*
X10796753Y-13475536D01*
X10796753Y-13475536D02*
X10796753Y-13494584D01*
X10996753Y-13494584D02*
X10882467Y-13494584D01*
X10939610Y-13494584D02*
X10939610Y-13294584D01*
X10939610Y-13294584D02*
X10920563Y-13323155D01*
X10920563Y-13323155D02*
X10901515Y-13342203D01*
X10901515Y-13342203D02*
X10882467Y-13351727D01*
X11120563Y-13294584D02*
X11139610Y-13294584D01*
X11139610Y-13294584D02*
X11158658Y-13304108D01*
X11158658Y-13304108D02*
X11168182Y-13313631D01*
X11168182Y-13313631D02*
X11177705Y-13332679D01*
X11177705Y-13332679D02*
X11187229Y-13370774D01*
X11187229Y-13370774D02*
X11187229Y-13418393D01*
X11187229Y-13418393D02*
X11177705Y-13456488D01*
X11177705Y-13456488D02*
X11168182Y-13475536D01*
X11168182Y-13475536D02*
X11158658Y-13485060D01*
X11158658Y-13485060D02*
X11139610Y-13494584D01*
X11139610Y-13494584D02*
X11120563Y-13494584D01*
X11120563Y-13494584D02*
X11101515Y-13485060D01*
X11101515Y-13485060D02*
X11091991Y-13475536D01*
X11091991Y-13475536D02*
X11082467Y-13456488D01*
X11082467Y-13456488D02*
X11072944Y-13418393D01*
X11072944Y-13418393D02*
X11072944Y-13370774D01*
X11072944Y-13370774D02*
X11082467Y-13332679D01*
X11082467Y-13332679D02*
X11091991Y-13313631D01*
X11091991Y-13313631D02*
X11101515Y-13304108D01*
X11101515Y-13304108D02*
X11120563Y-13294584D01*
X11311039Y-13294584D02*
X11330086Y-13294584D01*
X11330086Y-13294584D02*
X11349134Y-13304108D01*
X11349134Y-13304108D02*
X11358658Y-13313631D01*
X11358658Y-13313631D02*
X11368182Y-13332679D01*
X11368182Y-13332679D02*
X11377705Y-13370774D01*
X11377705Y-13370774D02*
X11377705Y-13418393D01*
X11377705Y-13418393D02*
X11368182Y-13456488D01*
X11368182Y-13456488D02*
X11358658Y-13475536D01*
X11358658Y-13475536D02*
X11349134Y-13485060D01*
X11349134Y-13485060D02*
X11330086Y-13494584D01*
X11330086Y-13494584D02*
X11311039Y-13494584D01*
X11311039Y-13494584D02*
X11291991Y-13485060D01*
X11291991Y-13485060D02*
X11282467Y-13475536D01*
X11282467Y-13475536D02*
X11272943Y-13456488D01*
X11272943Y-13456488D02*
X11263420Y-13418393D01*
X11263420Y-13418393D02*
X11263420Y-13370774D01*
X11263420Y-13370774D02*
X11272943Y-13332679D01*
X11272943Y-13332679D02*
X11282467Y-13313631D01*
X11282467Y-13313631D02*
X11291991Y-13304108D01*
X11291991Y-13304108D02*
X11311039Y-13294584D01*
X11463420Y-13494584D02*
X11463420Y-13361250D01*
X11463420Y-13380298D02*
X11472943Y-13370774D01*
X11472943Y-13370774D02*
X11491991Y-13361250D01*
X11491991Y-13361250D02*
X11520563Y-13361250D01*
X11520563Y-13361250D02*
X11539610Y-13370774D01*
X11539610Y-13370774D02*
X11549134Y-13389822D01*
X11549134Y-13389822D02*
X11549134Y-13494584D01*
X11549134Y-13389822D02*
X11558658Y-13370774D01*
X11558658Y-13370774D02*
X11577705Y-13361250D01*
X11577705Y-13361250D02*
X11606277Y-13361250D01*
X11606277Y-13361250D02*
X11625324Y-13370774D01*
X11625324Y-13370774D02*
X11634848Y-13389822D01*
X11634848Y-13389822D02*
X11634848Y-13494584D01*
X11730086Y-13494584D02*
X11730086Y-13361250D01*
X11730086Y-13380298D02*
X11739610Y-13370774D01*
X11739610Y-13370774D02*
X11758658Y-13361250D01*
X11758658Y-13361250D02*
X11787229Y-13361250D01*
X11787229Y-13361250D02*
X11806277Y-13370774D01*
X11806277Y-13370774D02*
X11815801Y-13389822D01*
X11815801Y-13389822D02*
X11815801Y-13494584D01*
X11815801Y-13389822D02*
X11825324Y-13370774D01*
X11825324Y-13370774D02*
X11844372Y-13361250D01*
X11844372Y-13361250D02*
X11872943Y-13361250D01*
X11872943Y-13361250D02*
X11891991Y-13370774D01*
X11891991Y-13370774D02*
X11901515Y-13389822D01*
X11901515Y-13389822D02*
X11901515Y-13494584D01*
X12291991Y-13285060D02*
X12120563Y-13542203D01*
X12549134Y-13294584D02*
X12568182Y-13294584D01*
X12568182Y-13294584D02*
X12587229Y-13304108D01*
X12587229Y-13304108D02*
X12596753Y-13313631D01*
X12596753Y-13313631D02*
X12606277Y-13332679D01*
X12606277Y-13332679D02*
X12615801Y-13370774D01*
X12615801Y-13370774D02*
X12615801Y-13418393D01*
X12615801Y-13418393D02*
X12606277Y-13456488D01*
X12606277Y-13456488D02*
X12596753Y-13475536D01*
X12596753Y-13475536D02*
X12587229Y-13485060D01*
X12587229Y-13485060D02*
X12568182Y-13494584D01*
X12568182Y-13494584D02*
X12549134Y-13494584D01*
X12549134Y-13494584D02*
X12530086Y-13485060D01*
X12530086Y-13485060D02*
X12520563Y-13475536D01*
X12520563Y-13475536D02*
X12511039Y-13456488D01*
X12511039Y-13456488D02*
X12501515Y-13418393D01*
X12501515Y-13418393D02*
X12501515Y-13370774D01*
X12501515Y-13370774D02*
X12511039Y-13332679D01*
X12511039Y-13332679D02*
X12520563Y-13313631D01*
X12520563Y-13313631D02*
X12530086Y-13304108D01*
X12530086Y-13304108D02*
X12549134Y-13294584D01*
X12701515Y-13475536D02*
X12711039Y-13485060D01*
X12711039Y-13485060D02*
X12701515Y-13494584D01*
X12701515Y-13494584D02*
X12691991Y-13485060D01*
X12691991Y-13485060D02*
X12701515Y-13475536D01*
X12701515Y-13475536D02*
X12701515Y-13494584D01*
X12834848Y-13294584D02*
X12853896Y-13294584D01*
X12853896Y-13294584D02*
X12872944Y-13304108D01*
X12872944Y-13304108D02*
X12882467Y-13313631D01*
X12882467Y-13313631D02*
X12891991Y-13332679D01*
X12891991Y-13332679D02*
X12901515Y-13370774D01*
X12901515Y-13370774D02*
X12901515Y-13418393D01*
X12901515Y-13418393D02*
X12891991Y-13456488D01*
X12891991Y-13456488D02*
X12882467Y-13475536D01*
X12882467Y-13475536D02*
X12872944Y-13485060D01*
X12872944Y-13485060D02*
X12853896Y-13494584D01*
X12853896Y-13494584D02*
X12834848Y-13494584D01*
X12834848Y-13494584D02*
X12815801Y-13485060D01*
X12815801Y-13485060D02*
X12806277Y-13475536D01*
X12806277Y-13475536D02*
X12796753Y-13456488D01*
X12796753Y-13456488D02*
X12787229Y-13418393D01*
X12787229Y-13418393D02*
X12787229Y-13370774D01*
X12787229Y-13370774D02*
X12796753Y-13332679D01*
X12796753Y-13332679D02*
X12806277Y-13313631D01*
X12806277Y-13313631D02*
X12815801Y-13304108D01*
X12815801Y-13304108D02*
X12834848Y-13294584D01*
X13072944Y-13361250D02*
X13072944Y-13494584D01*
X13025325Y-13285060D02*
X12977706Y-13427917D01*
X12977706Y-13427917D02*
X13101515Y-13427917D01*
X13158658Y-13294584D02*
X13282467Y-13294584D01*
X13282467Y-13294584D02*
X13215801Y-13370774D01*
X13215801Y-13370774D02*
X13244372Y-13370774D01*
X13244372Y-13370774D02*
X13263420Y-13380298D01*
X13263420Y-13380298D02*
X13272944Y-13389822D01*
X13272944Y-13389822D02*
X13282467Y-13408869D01*
X13282467Y-13408869D02*
X13282467Y-13456488D01*
X13282467Y-13456488D02*
X13272944Y-13475536D01*
X13272944Y-13475536D02*
X13263420Y-13485060D01*
X13263420Y-13485060D02*
X13244372Y-13494584D01*
X13244372Y-13494584D02*
X13187229Y-13494584D01*
X13187229Y-13494584D02*
X13168182Y-13485060D01*
X13168182Y-13485060D02*
X13158658Y-13475536D01*
X13349134Y-13294584D02*
X13472944Y-13294584D01*
X13472944Y-13294584D02*
X13406277Y-13370774D01*
X13406277Y-13370774D02*
X13434848Y-13370774D01*
X13434848Y-13370774D02*
X13453896Y-13380298D01*
X13453896Y-13380298D02*
X13463420Y-13389822D01*
X13463420Y-13389822D02*
X13472944Y-13408869D01*
X13472944Y-13408869D02*
X13472944Y-13456488D01*
X13472944Y-13456488D02*
X13463420Y-13475536D01*
X13463420Y-13475536D02*
X13453896Y-13485060D01*
X13453896Y-13485060D02*
X13434848Y-13494584D01*
X13434848Y-13494584D02*
X13377706Y-13494584D01*
X13377706Y-13494584D02*
X13358658Y-13485060D01*
X13358658Y-13485060D02*
X13349134Y-13475536D01*
X13549134Y-13294584D02*
X13549134Y-13332679D01*
X13625325Y-13294584D02*
X13625325Y-13332679D01*
X13920563Y-13570774D02*
X13911039Y-13561250D01*
X13911039Y-13561250D02*
X13891991Y-13532679D01*
X13891991Y-13532679D02*
X13882468Y-13513631D01*
X13882468Y-13513631D02*
X13872944Y-13485060D01*
X13872944Y-13485060D02*
X13863420Y-13437441D01*
X13863420Y-13437441D02*
X13863420Y-13399346D01*
X13863420Y-13399346D02*
X13872944Y-13351727D01*
X13872944Y-13351727D02*
X13882468Y-13323155D01*
X13882468Y-13323155D02*
X13891991Y-13304108D01*
X13891991Y-13304108D02*
X13911039Y-13275536D01*
X13911039Y-13275536D02*
X13920563Y-13266012D01*
X14101515Y-13494584D02*
X13987229Y-13494584D01*
X14044372Y-13494584D02*
X14044372Y-13294584D01*
X14044372Y-13294584D02*
X14025325Y-13323155D01*
X14025325Y-13323155D02*
X14006277Y-13342203D01*
X14006277Y-13342203D02*
X13987229Y-13351727D01*
X14282468Y-13294584D02*
X14187229Y-13294584D01*
X14187229Y-13294584D02*
X14177706Y-13389822D01*
X14177706Y-13389822D02*
X14187229Y-13380298D01*
X14187229Y-13380298D02*
X14206277Y-13370774D01*
X14206277Y-13370774D02*
X14253896Y-13370774D01*
X14253896Y-13370774D02*
X14272944Y-13380298D01*
X14272944Y-13380298D02*
X14282468Y-13389822D01*
X14282468Y-13389822D02*
X14291991Y-13408869D01*
X14291991Y-13408869D02*
X14291991Y-13456488D01*
X14291991Y-13456488D02*
X14282468Y-13475536D01*
X14282468Y-13475536D02*
X14272944Y-13485060D01*
X14272944Y-13485060D02*
X14253896Y-13494584D01*
X14253896Y-13494584D02*
X14206277Y-13494584D01*
X14206277Y-13494584D02*
X14187229Y-13485060D01*
X14187229Y-13485060D02*
X14177706Y-13475536D01*
X14530087Y-13494584D02*
X14530087Y-13294584D01*
X14615801Y-13494584D02*
X14615801Y-13389822D01*
X14615801Y-13389822D02*
X14606277Y-13370774D01*
X14606277Y-13370774D02*
X14587230Y-13361250D01*
X14587230Y-13361250D02*
X14558658Y-13361250D01*
X14558658Y-13361250D02*
X14539610Y-13370774D01*
X14539610Y-13370774D02*
X14530087Y-13380298D01*
X14739610Y-13494584D02*
X14720563Y-13485060D01*
X14720563Y-13485060D02*
X14711039Y-13475536D01*
X14711039Y-13475536D02*
X14701515Y-13456488D01*
X14701515Y-13456488D02*
X14701515Y-13399346D01*
X14701515Y-13399346D02*
X14711039Y-13380298D01*
X14711039Y-13380298D02*
X14720563Y-13370774D01*
X14720563Y-13370774D02*
X14739610Y-13361250D01*
X14739610Y-13361250D02*
X14768182Y-13361250D01*
X14768182Y-13361250D02*
X14787230Y-13370774D01*
X14787230Y-13370774D02*
X14796753Y-13380298D01*
X14796753Y-13380298D02*
X14806277Y-13399346D01*
X14806277Y-13399346D02*
X14806277Y-13456488D01*
X14806277Y-13456488D02*
X14796753Y-13475536D01*
X14796753Y-13475536D02*
X14787230Y-13485060D01*
X14787230Y-13485060D02*
X14768182Y-13494584D01*
X14768182Y-13494584D02*
X14739610Y-13494584D01*
X14920563Y-13494584D02*
X14901515Y-13485060D01*
X14901515Y-13485060D02*
X14891991Y-13466012D01*
X14891991Y-13466012D02*
X14891991Y-13294584D01*
X15072944Y-13485060D02*
X15053896Y-13494584D01*
X15053896Y-13494584D02*
X15015801Y-13494584D01*
X15015801Y-13494584D02*
X14996753Y-13485060D01*
X14996753Y-13485060D02*
X14987230Y-13466012D01*
X14987230Y-13466012D02*
X14987230Y-13389822D01*
X14987230Y-13389822D02*
X14996753Y-13370774D01*
X14996753Y-13370774D02*
X15015801Y-13361250D01*
X15015801Y-13361250D02*
X15053896Y-13361250D01*
X15053896Y-13361250D02*
X15072944Y-13370774D01*
X15072944Y-13370774D02*
X15082468Y-13389822D01*
X15082468Y-13389822D02*
X15082468Y-13408869D01*
X15082468Y-13408869D02*
X14987230Y-13427917D01*
X15158658Y-13485060D02*
X15177706Y-13494584D01*
X15177706Y-13494584D02*
X15215801Y-13494584D01*
X15215801Y-13494584D02*
X15234849Y-13485060D01*
X15234849Y-13485060D02*
X15244372Y-13466012D01*
X15244372Y-13466012D02*
X15244372Y-13456488D01*
X15244372Y-13456488D02*
X15234849Y-13437441D01*
X15234849Y-13437441D02*
X15215801Y-13427917D01*
X15215801Y-13427917D02*
X15187230Y-13427917D01*
X15187230Y-13427917D02*
X15168182Y-13418393D01*
X15168182Y-13418393D02*
X15158658Y-13399346D01*
X15158658Y-13399346D02*
X15158658Y-13389822D01*
X15158658Y-13389822D02*
X15168182Y-13370774D01*
X15168182Y-13370774D02*
X15187230Y-13361250D01*
X15187230Y-13361250D02*
X15215801Y-13361250D01*
X15215801Y-13361250D02*
X15234849Y-13370774D01*
X15311039Y-13570774D02*
X15320563Y-13561250D01*
X15320563Y-13561250D02*
X15339611Y-13532679D01*
X15339611Y-13532679D02*
X15349134Y-13513631D01*
X15349134Y-13513631D02*
X15358658Y-13485060D01*
X15358658Y-13485060D02*
X15368182Y-13437441D01*
X15368182Y-13437441D02*
X15368182Y-13399346D01*
X15368182Y-13399346D02*
X15358658Y-13351727D01*
X15358658Y-13351727D02*
X15349134Y-13323155D01*
X15349134Y-13323155D02*
X15339611Y-13304108D01*
X15339611Y-13304108D02*
X15320563Y-13275536D01*
X15320563Y-13275536D02*
X15311039Y-13266012D01*
X10316211Y-13737811D02*
X10316211Y-13596389D01*
X10174789Y-13596389D01*
X10174789Y-13737811D01*
X10316211Y-13737811D01*
X10587229Y-13558584D02*
X10711039Y-13558584D01*
X10711039Y-13558584D02*
X10644372Y-13634774D01*
X10644372Y-13634774D02*
X10672944Y-13634774D01*
X10672944Y-13634774D02*
X10691991Y-13644298D01*
X10691991Y-13644298D02*
X10701515Y-13653822D01*
X10701515Y-13653822D02*
X10711039Y-13672869D01*
X10711039Y-13672869D02*
X10711039Y-13720488D01*
X10711039Y-13720488D02*
X10701515Y-13739536D01*
X10701515Y-13739536D02*
X10691991Y-13749060D01*
X10691991Y-13749060D02*
X10672944Y-13758584D01*
X10672944Y-13758584D02*
X10615801Y-13758584D01*
X10615801Y-13758584D02*
X10596753Y-13749060D01*
X10596753Y-13749060D02*
X10587229Y-13739536D01*
X10796753Y-13739536D02*
X10806277Y-13749060D01*
X10806277Y-13749060D02*
X10796753Y-13758584D01*
X10796753Y-13758584D02*
X10787229Y-13749060D01*
X10787229Y-13749060D02*
X10796753Y-13739536D01*
X10796753Y-13739536D02*
X10796753Y-13758584D01*
X10977705Y-13625250D02*
X10977705Y-13758584D01*
X10930086Y-13549060D02*
X10882467Y-13691917D01*
X10882467Y-13691917D02*
X11006277Y-13691917D01*
X11120563Y-13558584D02*
X11139610Y-13558584D01*
X11139610Y-13558584D02*
X11158658Y-13568108D01*
X11158658Y-13568108D02*
X11168182Y-13577631D01*
X11168182Y-13577631D02*
X11177705Y-13596679D01*
X11177705Y-13596679D02*
X11187229Y-13634774D01*
X11187229Y-13634774D02*
X11187229Y-13682393D01*
X11187229Y-13682393D02*
X11177705Y-13720488D01*
X11177705Y-13720488D02*
X11168182Y-13739536D01*
X11168182Y-13739536D02*
X11158658Y-13749060D01*
X11158658Y-13749060D02*
X11139610Y-13758584D01*
X11139610Y-13758584D02*
X11120563Y-13758584D01*
X11120563Y-13758584D02*
X11101515Y-13749060D01*
X11101515Y-13749060D02*
X11091991Y-13739536D01*
X11091991Y-13739536D02*
X11082467Y-13720488D01*
X11082467Y-13720488D02*
X11072944Y-13682393D01*
X11072944Y-13682393D02*
X11072944Y-13634774D01*
X11072944Y-13634774D02*
X11082467Y-13596679D01*
X11082467Y-13596679D02*
X11091991Y-13577631D01*
X11091991Y-13577631D02*
X11101515Y-13568108D01*
X11101515Y-13568108D02*
X11120563Y-13558584D01*
X11311039Y-13558584D02*
X11330086Y-13558584D01*
X11330086Y-13558584D02*
X11349134Y-13568108D01*
X11349134Y-13568108D02*
X11358658Y-13577631D01*
X11358658Y-13577631D02*
X11368182Y-13596679D01*
X11368182Y-13596679D02*
X11377705Y-13634774D01*
X11377705Y-13634774D02*
X11377705Y-13682393D01*
X11377705Y-13682393D02*
X11368182Y-13720488D01*
X11368182Y-13720488D02*
X11358658Y-13739536D01*
X11358658Y-13739536D02*
X11349134Y-13749060D01*
X11349134Y-13749060D02*
X11330086Y-13758584D01*
X11330086Y-13758584D02*
X11311039Y-13758584D01*
X11311039Y-13758584D02*
X11291991Y-13749060D01*
X11291991Y-13749060D02*
X11282467Y-13739536D01*
X11282467Y-13739536D02*
X11272943Y-13720488D01*
X11272943Y-13720488D02*
X11263420Y-13682393D01*
X11263420Y-13682393D02*
X11263420Y-13634774D01*
X11263420Y-13634774D02*
X11272943Y-13596679D01*
X11272943Y-13596679D02*
X11282467Y-13577631D01*
X11282467Y-13577631D02*
X11291991Y-13568108D01*
X11291991Y-13568108D02*
X11311039Y-13558584D01*
X11463420Y-13758584D02*
X11463420Y-13625250D01*
X11463420Y-13644298D02*
X11472943Y-13634774D01*
X11472943Y-13634774D02*
X11491991Y-13625250D01*
X11491991Y-13625250D02*
X11520563Y-13625250D01*
X11520563Y-13625250D02*
X11539610Y-13634774D01*
X11539610Y-13634774D02*
X11549134Y-13653822D01*
X11549134Y-13653822D02*
X11549134Y-13758584D01*
X11549134Y-13653822D02*
X11558658Y-13634774D01*
X11558658Y-13634774D02*
X11577705Y-13625250D01*
X11577705Y-13625250D02*
X11606277Y-13625250D01*
X11606277Y-13625250D02*
X11625324Y-13634774D01*
X11625324Y-13634774D02*
X11634848Y-13653822D01*
X11634848Y-13653822D02*
X11634848Y-13758584D01*
X11730086Y-13758584D02*
X11730086Y-13625250D01*
X11730086Y-13644298D02*
X11739610Y-13634774D01*
X11739610Y-13634774D02*
X11758658Y-13625250D01*
X11758658Y-13625250D02*
X11787229Y-13625250D01*
X11787229Y-13625250D02*
X11806277Y-13634774D01*
X11806277Y-13634774D02*
X11815801Y-13653822D01*
X11815801Y-13653822D02*
X11815801Y-13758584D01*
X11815801Y-13653822D02*
X11825324Y-13634774D01*
X11825324Y-13634774D02*
X11844372Y-13625250D01*
X11844372Y-13625250D02*
X11872943Y-13625250D01*
X11872943Y-13625250D02*
X11891991Y-13634774D01*
X11891991Y-13634774D02*
X11901515Y-13653822D01*
X11901515Y-13653822D02*
X11901515Y-13758584D01*
X12291991Y-13549060D02*
X12120563Y-13806203D01*
X12549134Y-13558584D02*
X12568182Y-13558584D01*
X12568182Y-13558584D02*
X12587229Y-13568108D01*
X12587229Y-13568108D02*
X12596753Y-13577631D01*
X12596753Y-13577631D02*
X12606277Y-13596679D01*
X12606277Y-13596679D02*
X12615801Y-13634774D01*
X12615801Y-13634774D02*
X12615801Y-13682393D01*
X12615801Y-13682393D02*
X12606277Y-13720488D01*
X12606277Y-13720488D02*
X12596753Y-13739536D01*
X12596753Y-13739536D02*
X12587229Y-13749060D01*
X12587229Y-13749060D02*
X12568182Y-13758584D01*
X12568182Y-13758584D02*
X12549134Y-13758584D01*
X12549134Y-13758584D02*
X12530086Y-13749060D01*
X12530086Y-13749060D02*
X12520563Y-13739536D01*
X12520563Y-13739536D02*
X12511039Y-13720488D01*
X12511039Y-13720488D02*
X12501515Y-13682393D01*
X12501515Y-13682393D02*
X12501515Y-13634774D01*
X12501515Y-13634774D02*
X12511039Y-13596679D01*
X12511039Y-13596679D02*
X12520563Y-13577631D01*
X12520563Y-13577631D02*
X12530086Y-13568108D01*
X12530086Y-13568108D02*
X12549134Y-13558584D01*
X12701515Y-13739536D02*
X12711039Y-13749060D01*
X12711039Y-13749060D02*
X12701515Y-13758584D01*
X12701515Y-13758584D02*
X12691991Y-13749060D01*
X12691991Y-13749060D02*
X12701515Y-13739536D01*
X12701515Y-13739536D02*
X12701515Y-13758584D01*
X12901515Y-13758584D02*
X12787229Y-13758584D01*
X12844372Y-13758584D02*
X12844372Y-13558584D01*
X12844372Y-13558584D02*
X12825325Y-13587155D01*
X12825325Y-13587155D02*
X12806277Y-13606203D01*
X12806277Y-13606203D02*
X12787229Y-13615727D01*
X12968182Y-13558584D02*
X13091991Y-13558584D01*
X13091991Y-13558584D02*
X13025325Y-13634774D01*
X13025325Y-13634774D02*
X13053896Y-13634774D01*
X13053896Y-13634774D02*
X13072944Y-13644298D01*
X13072944Y-13644298D02*
X13082467Y-13653822D01*
X13082467Y-13653822D02*
X13091991Y-13672869D01*
X13091991Y-13672869D02*
X13091991Y-13720488D01*
X13091991Y-13720488D02*
X13082467Y-13739536D01*
X13082467Y-13739536D02*
X13072944Y-13749060D01*
X13072944Y-13749060D02*
X13053896Y-13758584D01*
X13053896Y-13758584D02*
X12996753Y-13758584D01*
X12996753Y-13758584D02*
X12977706Y-13749060D01*
X12977706Y-13749060D02*
X12968182Y-13739536D01*
X13158658Y-13558584D02*
X13282467Y-13558584D01*
X13282467Y-13558584D02*
X13215801Y-13634774D01*
X13215801Y-13634774D02*
X13244372Y-13634774D01*
X13244372Y-13634774D02*
X13263420Y-13644298D01*
X13263420Y-13644298D02*
X13272944Y-13653822D01*
X13272944Y-13653822D02*
X13282467Y-13672869D01*
X13282467Y-13672869D02*
X13282467Y-13720488D01*
X13282467Y-13720488D02*
X13272944Y-13739536D01*
X13272944Y-13739536D02*
X13263420Y-13749060D01*
X13263420Y-13749060D02*
X13244372Y-13758584D01*
X13244372Y-13758584D02*
X13187229Y-13758584D01*
X13187229Y-13758584D02*
X13168182Y-13749060D01*
X13168182Y-13749060D02*
X13158658Y-13739536D01*
X13377706Y-13758584D02*
X13415801Y-13758584D01*
X13415801Y-13758584D02*
X13434848Y-13749060D01*
X13434848Y-13749060D02*
X13444372Y-13739536D01*
X13444372Y-13739536D02*
X13463420Y-13710965D01*
X13463420Y-13710965D02*
X13472944Y-13672869D01*
X13472944Y-13672869D02*
X13472944Y-13596679D01*
X13472944Y-13596679D02*
X13463420Y-13577631D01*
X13463420Y-13577631D02*
X13453896Y-13568108D01*
X13453896Y-13568108D02*
X13434848Y-13558584D01*
X13434848Y-13558584D02*
X13396753Y-13558584D01*
X13396753Y-13558584D02*
X13377706Y-13568108D01*
X13377706Y-13568108D02*
X13368182Y-13577631D01*
X13368182Y-13577631D02*
X13358658Y-13596679D01*
X13358658Y-13596679D02*
X13358658Y-13644298D01*
X13358658Y-13644298D02*
X13368182Y-13663346D01*
X13368182Y-13663346D02*
X13377706Y-13672869D01*
X13377706Y-13672869D02*
X13396753Y-13682393D01*
X13396753Y-13682393D02*
X13434848Y-13682393D01*
X13434848Y-13682393D02*
X13453896Y-13672869D01*
X13453896Y-13672869D02*
X13463420Y-13663346D01*
X13463420Y-13663346D02*
X13472944Y-13644298D01*
X13549134Y-13558584D02*
X13549134Y-13596679D01*
X13625325Y-13558584D02*
X13625325Y-13596679D01*
X13920563Y-13834774D02*
X13911039Y-13825250D01*
X13911039Y-13825250D02*
X13891991Y-13796679D01*
X13891991Y-13796679D02*
X13882468Y-13777631D01*
X13882468Y-13777631D02*
X13872944Y-13749060D01*
X13872944Y-13749060D02*
X13863420Y-13701441D01*
X13863420Y-13701441D02*
X13863420Y-13663346D01*
X13863420Y-13663346D02*
X13872944Y-13615727D01*
X13872944Y-13615727D02*
X13882468Y-13587155D01*
X13882468Y-13587155D02*
X13891991Y-13568108D01*
X13891991Y-13568108D02*
X13911039Y-13539536D01*
X13911039Y-13539536D02*
X13920563Y-13530012D01*
X13987229Y-13577631D02*
X13996753Y-13568108D01*
X13996753Y-13568108D02*
X14015801Y-13558584D01*
X14015801Y-13558584D02*
X14063420Y-13558584D01*
X14063420Y-13558584D02*
X14082468Y-13568108D01*
X14082468Y-13568108D02*
X14091991Y-13577631D01*
X14091991Y-13577631D02*
X14101515Y-13596679D01*
X14101515Y-13596679D02*
X14101515Y-13615727D01*
X14101515Y-13615727D02*
X14091991Y-13644298D01*
X14091991Y-13644298D02*
X13977706Y-13758584D01*
X13977706Y-13758584D02*
X14101515Y-13758584D01*
X14339610Y-13758584D02*
X14339610Y-13558584D01*
X14425325Y-13758584D02*
X14425325Y-13653822D01*
X14425325Y-13653822D02*
X14415801Y-13634774D01*
X14415801Y-13634774D02*
X14396753Y-13625250D01*
X14396753Y-13625250D02*
X14368182Y-13625250D01*
X14368182Y-13625250D02*
X14349134Y-13634774D01*
X14349134Y-13634774D02*
X14339610Y-13644298D01*
X14549134Y-13758584D02*
X14530087Y-13749060D01*
X14530087Y-13749060D02*
X14520563Y-13739536D01*
X14520563Y-13739536D02*
X14511039Y-13720488D01*
X14511039Y-13720488D02*
X14511039Y-13663346D01*
X14511039Y-13663346D02*
X14520563Y-13644298D01*
X14520563Y-13644298D02*
X14530087Y-13634774D01*
X14530087Y-13634774D02*
X14549134Y-13625250D01*
X14549134Y-13625250D02*
X14577706Y-13625250D01*
X14577706Y-13625250D02*
X14596753Y-13634774D01*
X14596753Y-13634774D02*
X14606277Y-13644298D01*
X14606277Y-13644298D02*
X14615801Y-13663346D01*
X14615801Y-13663346D02*
X14615801Y-13720488D01*
X14615801Y-13720488D02*
X14606277Y-13739536D01*
X14606277Y-13739536D02*
X14596753Y-13749060D01*
X14596753Y-13749060D02*
X14577706Y-13758584D01*
X14577706Y-13758584D02*
X14549134Y-13758584D01*
X14730087Y-13758584D02*
X14711039Y-13749060D01*
X14711039Y-13749060D02*
X14701515Y-13730012D01*
X14701515Y-13730012D02*
X14701515Y-13558584D01*
X14882468Y-13749060D02*
X14863420Y-13758584D01*
X14863420Y-13758584D02*
X14825325Y-13758584D01*
X14825325Y-13758584D02*
X14806277Y-13749060D01*
X14806277Y-13749060D02*
X14796753Y-13730012D01*
X14796753Y-13730012D02*
X14796753Y-13653822D01*
X14796753Y-13653822D02*
X14806277Y-13634774D01*
X14806277Y-13634774D02*
X14825325Y-13625250D01*
X14825325Y-13625250D02*
X14863420Y-13625250D01*
X14863420Y-13625250D02*
X14882468Y-13634774D01*
X14882468Y-13634774D02*
X14891991Y-13653822D01*
X14891991Y-13653822D02*
X14891991Y-13672869D01*
X14891991Y-13672869D02*
X14796753Y-13691917D01*
X14968182Y-13749060D02*
X14987230Y-13758584D01*
X14987230Y-13758584D02*
X15025325Y-13758584D01*
X15025325Y-13758584D02*
X15044372Y-13749060D01*
X15044372Y-13749060D02*
X15053896Y-13730012D01*
X15053896Y-13730012D02*
X15053896Y-13720488D01*
X15053896Y-13720488D02*
X15044372Y-13701441D01*
X15044372Y-13701441D02*
X15025325Y-13691917D01*
X15025325Y-13691917D02*
X14996753Y-13691917D01*
X14996753Y-13691917D02*
X14977706Y-13682393D01*
X14977706Y-13682393D02*
X14968182Y-13663346D01*
X14968182Y-13663346D02*
X14968182Y-13653822D01*
X14968182Y-13653822D02*
X14977706Y-13634774D01*
X14977706Y-13634774D02*
X14996753Y-13625250D01*
X14996753Y-13625250D02*
X15025325Y-13625250D01*
X15025325Y-13625250D02*
X15044372Y-13634774D01*
X15120563Y-13834774D02*
X15130087Y-13825250D01*
X15130087Y-13825250D02*
X15149134Y-13796679D01*
X15149134Y-13796679D02*
X15158658Y-13777631D01*
X15158658Y-13777631D02*
X15168182Y-13749060D01*
X15168182Y-13749060D02*
X15177706Y-13701441D01*
X15177706Y-13701441D02*
X15177706Y-13663346D01*
X15177706Y-13663346D02*
X15168182Y-13615727D01*
X15168182Y-13615727D02*
X15158658Y-13587155D01*
X15158658Y-13587155D02*
X15149134Y-13568108D01*
X15149134Y-13568108D02*
X15130087Y-13539536D01*
X15130087Y-13539536D02*
X15120563Y-13530012D01*
M02*
