G04 #@! TF.GenerationSoftware,KiCad,Pcbnew,7.0.9-7.0.9~ubuntu22.04.1*
G04 #@! TF.CreationDate,2023-12-05T21:20:48+02:00*
G04 #@! TF.ProjectId,iCE40HX-expansion,69434534-3048-4582-9d65-7870616e7369,rev?*
G04 #@! TF.SameCoordinates,Original*
G04 #@! TF.FileFunction,Paste,Bot*
G04 #@! TF.FilePolarity,Positive*
%FSLAX46Y46*%
G04 Gerber Fmt 4.6, Leading zero omitted, Abs format (unit mm)*
G04 Created by KiCad (PCBNEW 7.0.9-7.0.9~ubuntu22.04.1) date 2023-12-05 21:20:48*
%MOMM*%
%LPD*%
G01*
G04 APERTURE LIST*
G04 Aperture macros list*
%AMRoundRect*
0 Rectangle with rounded corners*
0 $1 Rounding radius*
0 $2 $3 $4 $5 $6 $7 $8 $9 X,Y pos of 4 corners*
0 Add a 4 corners polygon primitive as box body*
4,1,4,$2,$3,$4,$5,$6,$7,$8,$9,$2,$3,0*
0 Add four circle primitives for the rounded corners*
1,1,$1+$1,$2,$3*
1,1,$1+$1,$4,$5*
1,1,$1+$1,$6,$7*
1,1,$1+$1,$8,$9*
0 Add four rect primitives between the rounded corners*
20,1,$1+$1,$2,$3,$4,$5,0*
20,1,$1+$1,$4,$5,$6,$7,0*
20,1,$1+$1,$6,$7,$8,$9,0*
20,1,$1+$1,$8,$9,$2,$3,0*%
G04 Aperture macros list end*
%ADD10RoundRect,0.250000X0.220971X-0.662913X0.662913X-0.220971X-0.220971X0.662913X-0.662913X0.220971X0*%
%ADD11RoundRect,0.225000X0.017678X-0.335876X0.335876X-0.017678X-0.017678X0.335876X-0.335876X0.017678X0*%
%ADD12RoundRect,0.225000X-0.335876X-0.017678X-0.017678X-0.335876X0.335876X0.017678X0.017678X0.335876X0*%
%ADD13R,2.100000X0.750000*%
G04 APERTURE END LIST*
D10*
X122936000Y-119075200D03*
X125004288Y-117006912D03*
D11*
X127594992Y-117134008D03*
X128691008Y-116037992D03*
X126451992Y-116118008D03*
X127548008Y-115021992D03*
D12*
X128839592Y-109433992D03*
X129935608Y-110530008D03*
D13*
X117583400Y-65557400D03*
X121183400Y-65557400D03*
X117583400Y-66827400D03*
X121183400Y-66827400D03*
X117583400Y-68097400D03*
X121183400Y-68097400D03*
X117583400Y-69367400D03*
X121183400Y-69367400D03*
X117583400Y-70637400D03*
X121183400Y-70637400D03*
X117583400Y-71907400D03*
X121183400Y-71907400D03*
X117583400Y-73177400D03*
X121183400Y-73177400D03*
X117583400Y-74447400D03*
X121183400Y-74447400D03*
X117583400Y-75717400D03*
X121183400Y-75717400D03*
X117583400Y-76987400D03*
X121183400Y-76987400D03*
X117583400Y-78257400D03*
X121183400Y-78257400D03*
X117583400Y-79527400D03*
X121183400Y-79527400D03*
X117583400Y-80797400D03*
X121183400Y-80797400D03*
X117583400Y-82067400D03*
X121183400Y-82067400D03*
X117583400Y-83337400D03*
X121183400Y-83337400D03*
X117583400Y-84607400D03*
X121183400Y-84607400D03*
X117583400Y-85877400D03*
X121183400Y-85877400D03*
X117583400Y-87147400D03*
X121183400Y-87147400D03*
X117583400Y-88417400D03*
X121183400Y-88417400D03*
X117583400Y-89687400D03*
X121183400Y-89687400D03*
D11*
X132954391Y-114086007D03*
X134050407Y-112989991D03*
D12*
X127769491Y-110512808D03*
X128865507Y-111608824D03*
D13*
X108693400Y-65557400D03*
X112293400Y-65557400D03*
X108693400Y-66827400D03*
X112293400Y-66827400D03*
X108693400Y-68097400D03*
X112293400Y-68097400D03*
X108693400Y-69367400D03*
X112293400Y-69367400D03*
X108693400Y-70637400D03*
X112293400Y-70637400D03*
X108693400Y-71907400D03*
X112293400Y-71907400D03*
X108693400Y-73177400D03*
X112293400Y-73177400D03*
X108693400Y-74447400D03*
X112293400Y-74447400D03*
X108693400Y-75717400D03*
X112293400Y-75717400D03*
X108693400Y-76987400D03*
X112293400Y-76987400D03*
X108693400Y-78257400D03*
X112293400Y-78257400D03*
X108693400Y-79527400D03*
X112293400Y-79527400D03*
X108693400Y-80797400D03*
X112293400Y-80797400D03*
X108693400Y-82067400D03*
X112293400Y-82067400D03*
X108693400Y-83337400D03*
X112293400Y-83337400D03*
X108693400Y-84607400D03*
X112293400Y-84607400D03*
X108693400Y-85877400D03*
X112293400Y-85877400D03*
X108693400Y-87147400D03*
X112293400Y-87147400D03*
X108693400Y-88417400D03*
X112293400Y-88417400D03*
X108693400Y-89687400D03*
X112293400Y-89687400D03*
D12*
X132166992Y-117815992D03*
X133263008Y-118912008D03*
D11*
X131811392Y-112943008D03*
X132907408Y-111846992D03*
D12*
X133309992Y-116672992D03*
X134406008Y-117769008D03*
M02*
